<svg xmlns="http://www.w3.org/2000/svg" viewBox="0 0 481.73 341.36"><defs><style>.cls-1{fill:#ed1c24;}</style></defs><g id="Layer_2" data-name="Layer 2"><g id="Layer_1-2" data-name="Layer 1"><path class="cls-1" d="M74.86,232.24c-.62-.14-.45,1.39-.55,1.66C75.41,233.57,74.84,231.84,74.86,232.24Z"/><path class="cls-1" d="M84.5,227.92l0,.64c.37-.59.73-1.16,1.06-1.77C85.19,227.19,84.85,227.54,84.5,227.92Z"/><path class="cls-1" d="M93,225.47c-.87-1.07-1.55-.71-2.27-.11s-1.52,1.35-2.4,1.15l-.41-.5c0,.74-.08,1.47-.13,2.21a21.71,21.71,0,0,0,2.74-1.75A3.77,3.77,0,0,1,93,225.47Z"/><path class="cls-1" d="M99.78,228.63c-.74-.77.61-1.26-1.22.23a3.33,3.33,0,0,1,.31.14A4.88,4.88,0,0,1,99.78,228.63Z"/><path class="cls-1" d="M98.87,229c-.89.51,1,.49,0,0Z"/><path class="cls-1" d="M102.72,226.36l-.72,1.42c.52.4,1.65-.06,1.47.53C104.44,227.19,103.86,226.82,102.72,226.36Z"/><path class="cls-1" d="M102.82,224.09l-.38.67C102.67,224.91,102.87,224.9,102.82,224.09Z"/><path class="cls-1" d="M101.61,226.15c.28-.46.57-.91.83-1.39-.37-.27-.79-1-.41.57C101.75,224.61,101.88,225.38,101.61,226.15Z"/><path class="cls-1" d="M100.71,226.19c-.91-.16-1.87-.05-1.17-1.45-1,.73-1.22,1.42-.93,1.8S99.71,227,100.71,226.19Z"/><path class="cls-1" d="M92.42,222.8c-.36-.12-.72-.26-1.08-.4l-.4,1.07C91.14,222.94,92.78,223.55,92.42,222.8Z"/><path class="cls-1" d="M110.31,223c-.27-.5-1.24-.93-1.73-1.45l-.4,1.08C108.8,222.65,109.76,222.38,110.31,223Z"/><path class="cls-1" d="M108.58,221.55c.19-.54.38-1.06.56-1.6C108.08,220.61,108.15,221.1,108.58,221.55Z"/><path class="cls-1" d="M101.52,221.49c-.28.95-.59,1.91-.94,2.85.48-1,.89-2.07,1.29-3.09Z"/><path class="cls-1" d="M114.68,219.55l.21,1.52c0-.82-.1-1.63-.16-2.43Z"/><path class="cls-1" d="M117.23,216.9c.3,1.19,1.86.71,1.85,1.63a5.32,5.32,0,0,0,.47-3.22C119.32,216.2,118.63,216.75,117.23,216.9Z"/><path class="cls-1" d="M119.54,213.58a9.12,9.12,0,0,0,0,1.73A3.59,3.59,0,0,0,119.54,213.58Z"/><path class="cls-1" d="M111.17,218.69a2.23,2.23,0,0,0,1.86.5l-1.43-.83Z"/><path class="cls-1" d="M111.56,218.33l0,0c.48-.36.81-.61,1-.71Z"/><path class="cls-1" d="M111.05,218.77l.12-.08C111,218.61,111,218.59,111.05,218.77Z"/><path class="cls-1" d="M105.27,220.77c.2-1.16.92-2.88-1.1-3.05C104.33,218.92,105.52,219,105.27,220.77Z"/><path class="cls-1" d="M109.3,217.68l-1.35.61c.27.31.85.62.8,1.21Z"/><polygon class="cls-1" points="109.54 216.85 109.3 217.68 109.8 217.45 109.54 216.85"/><path class="cls-1" d="M116.73,214.39a3.24,3.24,0,0,1,.85-2.09,8,8,0,0,0-2.07,1.46C115.77,214.19,116.14,215.07,116.73,214.39Z"/><path class="cls-1" d="M114.17,216.26a.94.94,0,0,0,0-.16C114.06,216.06,114,216.08,114.17,216.26Z"/><path class="cls-1" d="M122.5,206.57l-.3-.08.2.19Z"/><path class="cls-1" d="M115.21,213.65c-.64.23-.65.75-.58,1.35a6.1,6.1,0,0,1,.88-1.24C115.39,213.57,115.29,213.46,115.21,213.65Z"/><path class="cls-1" d="M120.46,211.48a9.14,9.14,0,0,0-1.37.24C119.67,211.82,120.69,211.84,120.46,211.48Z"/><path class="cls-1" d="M114.67,216.27a.53.53,0,0,1,0,.12C115,216.49,114.89,216.38,114.67,216.27Z"/><path class="cls-1" d="M114.67,216.27a4.19,4.19,0,0,0,0-1.27,3.79,3.79,0,0,0-.42,1.1A2.36,2.36,0,0,1,114.67,216.27Z"/><path class="cls-1" d="M115.82,198.8c1.11.92,1.3,2.94-.72,3,.07,1.63,4.25,4,7.1,4.73-.47-.42-.92-.78-.77-2.39-.91-.08-3.31,1.23-3.63-.47.5-1.83,1.28-.82,2.42-1-1-.25-1.13-1.09-1.39-2A3.66,3.66,0,0,0,117,198c0,.58,0,1.17-.11,1.74C116.58,199.52,116.37,198.7,115.82,198.8Z"/><path class="cls-1" d="M120.4,208.49l-.24.55a5.81,5.81,0,0,1,2.81-.31,2.46,2.46,0,0,0-.57-2c-.66.7-1.3,1.41-2,2.09Z"/><path class="cls-1" d="M118.44,211c-.84-1.39-.48-2.86-2.29-3.36-1,1.29.2,1.73,0,2.93,1.55-2.26.11,1.18,2.11.32a4.64,4.64,0,0,1-.71,1.39,7.86,7.86,0,0,1,1.51-.58l-.12,0v0l0,0c-.22,0-.34-.1-.16-.12,0,0,0-.05,0-.06a3,3,0,0,1-.35-.5c.78-.37.39.18.35.5,0,0,.09.12.15.18h0c.44-.87.8-1.78,1.19-2.66A6,6,0,0,0,118.44,211Z"/><path class="cls-1" d="M103.31,214.16a.81.81,0,0,1,.29.25C103.61,214.16,103.58,214,103.31,214.16Z"/><path class="cls-1" d="M104.72,214.31c0,.29.24.88-.35,1.11-.7-.07-.44-.61-.77-1,0,.54-.38,1.67,1,1.6l0-.28c1.17-.15,3.44.5,3.44.79A16.34,16.34,0,0,0,104.72,214.31Z"/><path class="cls-1" d="M111.34,212.72c.36-.7.73-1.38,1-2.08-.58-.06-1.15-.12-1.74-.2l.61.55C110.14,211.6,111,212.15,111.34,212.72Z"/><path class="cls-1" d="M123.28,206.85l1.12,1.26q-.51-1.26-1.05-2.49Z"/><polygon class="cls-1" points="124.91 204.34 126.01 205.28 125.77 204.12 124.91 204.34"/><path class="cls-1" d="M66.65,143.45l-.24.66A1.67,1.67,0,0,0,66.65,143.45Z"/><path class="cls-1" d="M70.16,141.29l-.29-.66C69.92,141.07,70,141.35,70.16,141.29Z"/><path class="cls-1" d="M144.28,134.67c.88-1.53,2.29-3.69.85-2.92l-1.33,1A2.15,2.15,0,0,1,144.28,134.67Z"/><path class="cls-1" d="M98.46,120.08l.34.43c.12-.57.24-1.1.34-1.59Z"/><path class="cls-1" d="M99.07,126.64l-1.2-.8A4,4,0,0,0,99.07,126.64Z"/><path class="cls-1" d="M50.33,158.75l.65,1.61C51.71,159.66,50.82,159.38,50.33,158.75Z"/><path class="cls-1" d="M138.64,178.36a4.24,4.24,0,0,0,1.7-1.51C139.11,177.42,137.54,177.59,138.64,178.36Z"/><path class="cls-1" d="M58.8,128.47a1.14,1.14,0,0,0,.07,1.11C59.05,129.13,59.08,128.75,58.8,128.47Z"/><path class="cls-1" d="M141.23,174.62a4.11,4.11,0,0,0-.51.27,3.52,3.52,0,0,1-.38,2C141.24,176.42,142,175.78,141.23,174.62Z"/><path class="cls-1" d="M17.27,228.1c-.07.06-.1.12-.18.18C17.3,228.29,17.31,228.21,17.27,228.1Z"/><path class="cls-1" d="M8.17,256.12a5.42,5.42,0,0,1-.7-1C7.48,255.35,7.67,255.67,8.17,256.12Z"/><path class="cls-1" d="M131.88,194.76c-.22.59.11.17,0,0Z"/><path class="cls-1" d="M125,194.11a1.3,1.3,0,0,0-.53-.6A1.66,1.66,0,0,1,125,194.11Z"/><path class="cls-1" d="M134,165.68l0,0C133.64,165.7,133.7,165.69,134,165.68Z"/><path class="cls-1" d="M130.8,195.2a3,3,0,0,0,.8-.44A3,3,0,0,0,130.8,195.2Z"/><path class="cls-1" d="M131.51,195.47c-.17.15-.29.27-.41.39C131.29,196.06,131.47,196.08,131.51,195.47Z"/><path class="cls-1" d="M132.24,194a2.62,2.62,0,0,1-.64.79c.15-.06.25-.06.28,0C132,194.59,132.05,194.35,132.24,194Z"/><path class="cls-1" d="M23.25,185.62l-.18,0C23.4,186.44,23.42,186.18,23.25,185.62Z"/><path class="cls-1" d="M122.7,131.51l.08,0v-.08Z"/><path class="cls-1" d="M120.83,131.61c1.6-1.28,1.84-.85,1.94-.21q1.22-2,2.34-4Q122.85,129.43,120.83,131.61Z"/><path class="cls-1" d="M59,149.61c.64.09,1.29.2,1.93.31.16,2.81-1.18,2.9,1,3.7-1.48-2-.54-2.89.41-3.76s1.89-1.74.52-3.79l1.33.33c-.23.11-.09.37-.32.47,2.77,1-1.07-3.69,1.22-4.37.87-.13,1.72.17,1.6.95l.77-2c.48-.19.84.59.37.79l2-1.75.06.13a15.28,15.28,0,0,1,.1-3c1,.26,0,.62.46,1.06l.65-1.78a1.66,1.66,0,0,1-.2,2.85c1.88,1.76,2,1.35,2.1.6s.32-1.82,2.31-1.29c-.3.4-.58.82-.86,1.23,2.15,2,2.57.6,4.73,1.4-.73-.64-4.83-2.38-4.06-4.21.57.11,1.17,0,1.44-1.31.85,1.54,1.37.75,2.25.19l1,2.1c.67-1.1,0-2.12.16-3.36,1.22-.38,2.27,1.14,3.2,2.38,1.94-.54-2.52-2-.58-3.44,1.89.1,2.51-1.25,3.78-3.32,1.38.29.37,1.39,1,1.85l.22-2.11c.25-.05.39.51.46.79.53-1-.81-2.2.24-3.28-.29-1.26.72-.66,1.83-.1s2.32,1.05,2.66-.6c.59.52.24,1.42.64,2.25.76-1.22,1.13-1.71,1.42-2.23A25.89,25.89,0,0,0,96,124.69c.64.38,1.27.75,1.89,1.15-1.51-1.48-.54-3.82.59-5.76a16,16,0,0,0-1.45-1.7c.69-.57,1.4-1.11,2.13-1.65.35.34.22,1.17,0,2.19.12-.21.24-.43.33-.62,1,.73.7,2.13.35,3.51l-1-1.3a10.1,10.1,0,0,0-.13,4.46,1.35,1.35,0,0,1,.56-.75,1.82,1.82,0,0,0,0,1c.11.23.23-.31.47-1l.86,2.5,0-1c.47.19.94.42,1.39.63s.91.44,1.34.68c1.52-2.74,3.15-6.76,6.66-7.53-1,1.81-.43,3.09-.69,5.33-.29-1.24-.91-1-1.58-.55s-1.4,1.21-2.15,1c.79.23.61,1.33.44,1.7l1.27-1.09c.44-.34.89-.68,1.36-1-.18,1.84.46,1.42,1,2.26-.14-3.71,2.24-2.22,3.54-3a3.49,3.49,0,0,1-.57,1.59,1,1,0,0,1-1.32.29c.47,1.45,1.06.5,1.76-.51s1.47-2,1.89-.71c-.33-.06-.46-.29-.74.29a1.23,1.23,0,0,1,1.61,0,1,1,0,0,1,.23,1.37l-.3-.07a12.05,12.05,0,0,0,3.79,1.26,5.09,5.09,0,0,0,2.06-.06,3.05,3.05,0,0,0,1.75-1.11c-.21.35-2.22,3-2.63,3.53a37.59,37.59,0,0,1,9.48-6.05,45.38,45.38,0,0,0-3.57,4.44c-1.33,1.64-2.73,3-3.79,3.16a1.53,1.53,0,0,0,.32.81,1.37,1.37,0,0,0,1.19.34c.07-.45,2-3.38,2.55-3.23a20.39,20.39,0,0,0-.75,2.38,9,9,0,0,1-.58,2.16,5.29,5.29,0,0,1,1.92-1.71c.94-.59,2-.94,2.18-.55-.57.28-3.22,2.58-3.72,2.65a24,24,0,0,1,4.44-.82c-.91,0-2.94,1.88-3.72,2.79.28-.29.49,0,.67.45s.27,1,.56,1.09q.25-.54.51-1.11c.16,1.06,1.76.84,3.31.85a8.29,8.29,0,0,1,2.27.17,2.29,2.29,0,0,1,.86.41,1.14,1.14,0,0,1,.46.76c-.9-.1-5.15.91-5.39,2.08a33.37,33.37,0,0,1,6.31.22,16.63,16.63,0,0,1,3.66.94,5.52,5.52,0,0,1,2.47,1.64l-1.16.64c.51.64,1,1.3,1.52,2-1.63-.61-4.17-1.66-6.63-2.49-1.27-.42-2.52-.78-3.62-1.08s-2-.55-2.77-.72c-.74,1-1.34.51-1,1.6a1.35,1.35,0,0,1-1.88-.58l-.18,1.26-.07.61c0,.2-.09.42-.13.63,2.42-.38,2.63,1.81,4.62,1.7a17.79,17.79,0,0,0-1.37-1.5,14.61,14.61,0,0,0-1.4-1.33,8,8,0,0,1,4.43.61c1.43.64,2.58,1.76,2.32,3a4.92,4.92,0,0,1-2.65,0,21.38,21.38,0,0,0-2.53-.35c.83.24,1.63,2,1,2.2-.41-.33-.83-.64-1.27-.94-.45.54.28,1.06.9,1.62s1,1.17-.23,1.77c-.23.51-3.33,1.05-1.91,1.33,2.87-.34,11.51.48,13.5,1.47a19.09,19.09,0,0,1-1.84,1.56,10.14,10.14,0,0,1-2.83,1.61c-1.16.25-2.37-.39-3.55-1a5.72,5.72,0,0,0-3.32-1,3.67,3.67,0,0,1,1.6,1.05c-.67.43-2-.65-1.95.58,2.37.76-.79,2.38,1.91,1.05.4,1.36-.78,1.14-1.08,2.54a5.82,5.82,0,0,1,3.12,1.56,6,6,0,0,1,2.05,2.74,4.4,4.4,0,0,0-1.86-.22,12,12,0,0,1-1.82,2.91,12.06,12.06,0,0,0-1.72,2.75c-.64,0-1.75.79-2.56-.08.28.49.94,1.11.69,1.82-2.55.47.36-1.65-2.46-1.65,1.29.64,1.08,2.53,1.46,3.89,2.18.61,1.4-2.12,1-3.43a8.7,8.7,0,0,1,3.63,2.91,8.45,8.45,0,0,1,1.63,4.33c-.19,2.24-2.19,0-2,.51-1.08,1.67-.22,3,.45,4.2s1.21,2.22-.55,3.22c-2.34.28-3.5-1.74-4.89-2.12.1-1.84,2.29-1.76,2.72-2.84l-1.45.86c-.35-.78-.3-2,.48-2.31-1,.1-1.81,1.55-2.73,3.18s-2,3.49-3.4,4.38c.32.78.45,1.92,1.35,1.93l.24-1c1.82,0,1,2.65,2.25,2a15.8,15.8,0,0,1,.44,2.71,2.53,2.53,0,0,1-1.13,2.3l-2.08-.89c.58.32,1.77-.33,1.45-1.13.22.59-.78.81-1.6,1.13s-1.44.79-.44,1.94l2-.26c.24,1.73,1.27,4.48-.32,5.51,2.28.61,0-.46,2.86,0-1.63-.46-1-1.36-.4-2.21s1.06-1.64-.82-1.84A3.11,3.11,0,0,0,129,198a3.88,3.88,0,0,1,2.56-.86c-.66-.33-1.5-.22-.46-1.28a3.91,3.91,0,0,1-.4-.6l.1-.06-.12,0c-.06-.11-.08-.13,0,0a2.53,2.53,0,0,1-1.33.06c-1.11-1.48.06-3.38-.36-4.46.7-.56.57.71,1.48.7l-.61-1.62c1.5.7,3.44-.67,3.36,1.53l.91-1.55c1.31-.5,2.28-1.64,2.07-2.74.69-.6-.71-2.7.13-1.48.11-1,.19-2,.27-2.93l.39.15c1.33-2.38-.14-6.14,3.77-8a4.78,4.78,0,0,1,.83-3.47l1.44.19c0-1.31,2.56-3.14,1.31-4.1,2-.1,2.68-1.56,2.93-3.26s.09-3.6.62-4.71l-1.8-.44a6.57,6.57,0,0,0,.16-2.4,24.68,24.68,0,0,0-.54-2.79l-1.64-.06c-.56-.89-.23-1.92.31-3.1a13.09,13.09,0,0,0,.72-1.88,6.23,6.23,0,0,0,.28-2.05c.62.17.46.89.08,1.38,1.9-1.65,1.05-3.56.12-5.2a14.54,14.54,0,0,1-1.39-2.43,3.42,3.42,0,0,1-.22-1.22,2.9,2.9,0,0,1,.3-1.32,1.41,1.41,0,0,1-.47-1.86.29.29,0,0,0,.13.16,1.16,1.16,0,0,0-.07-.32,7.3,7.3,0,0,0,.46-1.34,4.22,4.22,0,0,0-.51,1.17,7,7,0,0,0-1.46-2.11l1.49-1a1.27,1.27,0,0,0-.13-.19c.25-1.14-1-.35-2.08.6a3.72,3.72,0,0,0-1.45-.64c1.13-.91.63-1.36.16-1.81s-.9-.94.1-2.13c-.8.11-1.67-.71-2.68-1.35a3.81,3.81,0,0,0-1.67-.66,2.8,2.8,0,0,0-1.9.44c.29-.28.28-.59.59-.26-.3-1-.75-1.89-1.94-1.9.44-.62.87-1.25,1.29-1.87-1.23.22-2.42.49-3.56.81,0-1.78,0-2.8,2.09-3.3a19.41,19.41,0,0,1-2.2-.08,7.09,7.09,0,0,1-1.11-.16,5.28,5.28,0,0,0-2.89.27l.85-1.17a3.73,3.73,0,0,0-1.78,0c-.63,0-1.13,0-1.1-.65a3.42,3.42,0,0,0-1.71-2.18,16.53,16.53,0,0,0-3.57-1.59c-2.75-.93-5.88-1.57-8.36-3.08.28,2.17-.25,1.63-1,1s-1.59-1.41-1.76.24c-.25-1-1-1.61-.09-2.46a6.17,6.17,0,0,1-3.32-.07c-.91-.14-1.73,0-2.51,1.42-.39-1,.44-1.52.12-2.09-.2.23-.77.94-1.11.37s.31-.88.71-1.35c-2.81.43-2.62,3.6-2.39,6.49-1.44-1.16-2.11-.88-2.61,1.18-.6-.85-1.55-1.68-.07-2.32a16.13,16.13,0,0,0-3.09.19c-1.23.25-2.27.84-2,2-.43-.5-1.21.18-1.35.5l-2,.42a7.06,7.06,0,0,0-1.84.71l.61.18c.26,2.9-1.23,1.11-2.51,2l-.06-.29c-3.95-.58-1,1.43-5,.65l.88,1.53c.63,1.78-.25,1.57-1.46,1.19s-2.73-.9-3.28.18l1.07.59c-.19.81-1.41,0-2.74-1s-2.81-2.17-3.4-2.13c-.37-.18.09-.64.27-1-3.58-.64.73,2.2-.88,3.66-.93-.9-1.05-3-2.42-2.52-.56-.26-1,1.13-1.63,2.43s-1.42,2.57-2.87,2c.86.6,1.71,1.2,1.25,2.31-.56.52-1.87.3-3,.35s-2.12.37-1.85,2a1.27,1.27,0,0,1-.63-.48c-.52,1.3-2.37,3.13-2,4.88-2.15-2.17-3.21-.55-4,1.07s-1.48,3.19-3.18,1l-2.56,2.43-.29-.5c-2,1.14-1.71,2.71-1.43,4.22-.64.05-.7-.59-.86-.84-1.62.63-2.42,1.1-2.86,1.85s-.53,1.82-.54,3.78l-1.45-1.12c.1.64-1.25.93-2.73,1.57s-3.08,1.64-3.4,3.55a1.39,1.39,0,0,1-.35-.82c-.46,2.07-2.86,2.8-4.63,3.81s-2.94,2.19-.8,4.78c-.08,1-.17,1.9-.21,2.86,2.29-2.06,2,2.12,3.59,1.83-.41,1.14-3.42,1.18-2.81-.18l.4,0c-2.39-2.53-3.27,2.25-5.07.83a82.57,82.57,0,0,1-5.74,7l-1.48,1.72c-.48.57-.94,1.17-1.39,1.76s-.89,1.19-1.31,1.79-.78,1.25-1.14,1.88l2.67.67-1.06,1.68c-.8.18-2.19-.31-1.42-1.54-.85,0-.86.67-.57,1.39a4.23,4.23,0,0,0,1.12,1.62c-2.19,2.06-2.33-2.36-2.75-1.62l-.34,1.16.4-.1c.57,1.34,1.56,1.89.73,3.4-.92.78-1.73-.16-2,.2-.17-.08-.31,0-.33.58-.41.75-.85,1.5-1.22,2.27.77-.05,1.55-.1,2.34-.13.51,1.43-1,2.15,1.65,2-2,.09-3.23,2.16-3.95,4.32S6.82,199,6.1,199.31c1,1.93.65,3.4,0,5.2.56-.36,2.89-.06,2.27,1.43-2.33-.84-3-.23-3.57.68s-1,2.08-2.84,2.44c2.5-.77-.25,4.82,3.35,3.46-.58,1.29-1.82-.2-3.1.69.71,1.78.17,3.54-.43,5.44a13.72,13.72,0,0,0-1.1,6c.64.08,1.64-.58,2.57.31-1.07.7-2.15,1.43-3.22,2.19.33.85,3.72.69,1.53,2.26.54-.24,1.34-.58,1.56,0-1.41,4.11-.27,8.35.93,12.43a57.46,57.46,0,0,1,1.65,6.26,25,25,0,0,1,.29,7.2c.58-1.68,1-1,1.51-.18,0-.67,1.42-.72,2.13-1.23-.07.71-.13,1.43-.19,2.17s0,1.48,0,2.23a1.53,1.53,0,0,1,1.4.19,4.46,4.46,0,0,1,1,1,4.1,4.1,0,0,0,.92,1,1.22,1.22,0,0,0,1.28-.06c-.35-.21-.72-.41-1-.65,1.54-.2,2.4-1.58,3.34-3a11.36,11.36,0,0,1,3.44-3.9c-1.65.31-1.2-1.11-.82-2.41a2.91,2.91,0,0,0,.15-1.78c-.18-.48-.71-.79-1.95-.82.44-.72,1.19-.11,1.82-.67-1.6.16-2.14-.38-2-1.75h.4a8,8,0,0,1-.73-2.15,9.81,9.81,0,0,1-.07-2c.06-.68.15-1.38.25-2.14s.2-1.62.3-2.61l-1.66.59c.09-.88.6-1.14,1-1.59-2.75-.57.24,2.36-2.75,2,1.63-.89,1.4-2.35,1.31-3.82s-.06-2.92,1.93-3.41c-.06-1.29-2,.5-2-.82l1.06-.39-1.4-.29c.21-.89,1.55-1.35,2.47-1.39-.11.21.27.58.35.8a1.78,1.78,0,0,0,.29-2c-.21-.68-.53-1.29-.3-1.48-.25.42-.47.83-.69,1.24a10.15,10.15,0,0,1-.31-2.84c0-.49,0-1,0-1.48l.11-1.5a12.65,12.65,0,0,0-.67-5.93l-.85.15c-.52-1.48-.19-2,.23-2.52a3.39,3.39,0,0,0,.92-2.6l.17.15a2.49,2.49,0,0,1-.63-2.45c.75,1,2.17-1,3,.26-.42-1.61-.63-2.06-1.05-2.42a11.65,11.65,0,0,1-2.23-2l1.44-.07c-1-1-1.58-1.25-1.46-2.85.74,1.56,2.25-.31,3.31,1.5A2.71,2.71,0,0,0,20,199.51a4.15,4.15,0,0,0-.12-1.76c-.24-1.11-.31-2,2-1.86-3-2.73-2.95,1.84-3.39.79a1.51,1.51,0,0,1-1.54-1.08,1.94,1.94,0,0,1,.09-1.89c.23-.48,1.51-.46,2.83-.6s2.73-.43,3.2-1.6c-.11.22.14.35,0,.58,1.25-.48-.44-2.25,1.49-2.64-1.76-1.57.77-1.31-1.74-2.76l-.43,2.43c-.1-1.5-2.6-4.21-.06-5.47a5.12,5.12,0,0,1,1,2c1.06-.18.09-1.37,1.18-1.57,2.47,1.53-.81,2.85.59,5.11,1.38-.07-.71-3.34,1.78-1.29-1.54-1.35-1.13-1.86-.59-2.37s1.22-1.05.33-2.54l1.46.94c-.1-.36-.54-1.26-.25-1.67l1.51,1.89c-1-2.15,2.74-1.45,2.55-3.08-1.4,2.37-2.13-.56-3.81-.19-.1-2.09,1.16-1.94,2.55-1.7s3,.55,3.68-1.24c-.07.55-1.94,1-2.16-.08a4.64,4.64,0,0,1,2.78-.7c1.12-2.28-1.69-.69-2-2.18,2.24.49,0-1.51.14-2.85l1.43,1c2.62-1.7-2.49-2.82.22-4.14l1.26,2.37.33-1.48,1.42,1.45c-.29-2.09.32-2.23,1.68-3-1.18-.52-2.36-2.17-1.56-3.24,1.38,0,.95,1.45,2-.12.56,1,1.31,2.26-.43,1.84.39.43.59,1,1,1.45,1.5,0,1.73-1.62,2.15-2.14a1.11,1.11,0,0,1-.78.27c0-1.19-.07-2.4-.08-3.62.78.13.94.73,1.11,1.32.22-.52-.12-1.34.31-2,.91,1.12,2,2.09,1.79,3.35l.52-2.91c.57.29,2.12.24,2.28.84,1.56-.37.37-4.39,2.51-4.87a1.33,1.33,0,0,1,0-1,20.51,20.51,0,0,1,2.49-1.07,2.73,2.73,0,0,0,1.55-2.46l2.56,1.19c.85-1.49-3.32-1.42-1.88-3.92.95-1.89,1.95,1.22,2.92,1.34-.09-1.57-.44-4.73,2.26-4.14C59.86,149.15,59.26,149.11,59,149.61Zm16.09-12.13c-.17.51-.28,1.87-1,1.12C73.38,136.62,74.18,137.3,75.05,137.48ZM101.94,123c-.22.61-.67.38-1.26-.22A1.09,1.09,0,0,1,101.94,123Zm31.86,65.21a.42.42,0,0,0-.06-.08C134.8,187.57,134.4,187.75,133.8,188.21Zm-1.62,1.45a.7.7,0,0,0,.6.44c-.33-.34-.14-.76.22-1.16C132.52,188.86,132.11,188.94,132.18,189.66ZM9.91,186.09l.59-.18C10.6,186.94,10.28,186.52,9.91,186.09Z"/><path class="cls-1" d="M99,125.88a4.47,4.47,0,0,1-.33-.91A.8.8,0,0,0,99,125.88Z"/><path class="cls-1" d="M50.21,158.46l-.06,0a1.27,1.27,0,0,0,.18.27Z"/><path class="cls-1" d="M129.17,156.86a1.89,1.89,0,0,1,1-.48A.77.77,0,0,0,129.17,156.86Z"/><path class="cls-1" d="M129.21,200.69l.35-1.4c-.28.61-.74.6-1.15.72C128.77,200.21,129.41,200.31,129.21,200.69Z"/><path class="cls-1" d="M113.72,203.37c0,.27-.23.3-.18.58l.66.49C114.67,203.82,114.51,203,113.72,203.37Z"/><path class="cls-1" d="M123.64,198.51c-1.3-.73-1.32.21-1.6,1.11a.46.46,0,0,1,.08-.13C123.68,200.89,123.67,199.69,123.64,198.51Z"/><path class="cls-1" d="M122,199.83a1.75,1.75,0,0,1-.46.7C122.12,201.1,121.84,200.35,122,199.83Z"/><path class="cls-1" d="M131.81,192.41c-.54.2,1.52,1.16.88,1.09C134.1,194.83,132.1,189.82,131.81,192.41Z"/><polygon class="cls-1" points="119.18 196.39 120.87 197.15 119.92 195.93 119.18 196.39"/><path class="cls-1" d="M124,191.28l-1.14.95a.67.67,0,0,1,.34.64C123.66,192.17,124.45,191.53,124,191.28Z"/><path class="cls-1" d="M123.16,192.87a1.27,1.27,0,0,0-.33,1.12A2.81,2.81,0,0,0,123.16,192.87Z"/><polygon class="cls-1" points="119.76 194.52 120.3 194.38 120.94 193.63 119.76 194.52"/><path class="cls-1" d="M131.12,178.11l.15-1.6c-.51-.4-1-.18-1,.44C130.48,177.46,130.47,178.07,131.12,178.11Z"/><path class="cls-1" d="M124.65,180.07a3.22,3.22,0,0,1,1.54,0l-2-1Z"/><path class="cls-1" d="M126,175.94c-.51-.4-.76-2.69-1.4-.94C125.12,175.4,125,177,126,175.94Z"/><polygon class="cls-1" points="135.68 155.89 135.64 156.27 139.31 156.86 135.68 155.89"/><path class="cls-1" d="M126.05,140c-.44,1.37,2.24-.53,1.59.85,1,0,.52-1.15,1.35-1.12C127.83,139.34,128.21,138.8,126.05,140Z"/><path class="cls-1" d="M129,139.76a4.39,4.39,0,0,0,.68.2A1.86,1.86,0,0,0,129,139.76Z"/><path class="cls-1" d="M9.26,261.52c.08.54.14,1.1.25,1.63.12-.5.28-1,.43-1.5Z"/><path class="cls-1" d="M13.09,262l-1.61,1.77c.73-.24,1.46-.49,2.17-.75C13.37,262.8,12.83,262.47,13.09,262Z"/><path class="cls-1" d="M79.92,140.24l-.19-.54c-.44-.47-.68-.4-1.16-.24Z"/><polygon class="cls-1" points="66.84 146.12 67.07 146.02 65.47 144.51 66.84 146.12"/><path class="cls-1" d="M59,155.49c.41-.25.56-1,1-1.2C59.43,155.24,57.2,153.53,59,155.49Z"/><path class="cls-1" d="M196.41,1.59c1,.21.81-1.33,1-1.59-.95.08-1.18.6-1.19,1S196.42,1.79,196.41,1.59Z"/><path class="cls-1" d="M185.3,9.7,185,9.14a20.37,20.37,0,0,0,.19,2.12Q185.2,10.5,185.3,9.7Z"/><path class="cls-1" d="M180.75,17c1.36.16,1.52-.51,1.61-1.37s.08-2,.86-2.35l.64.1c-.47-.56-.93-1.13-1.38-1.73a13.5,13.5,0,0,0-.77,3.08A3.53,3.53,0,0,1,180.75,17Z"/><path class="cls-1" d="M173.92,19.26c.52,0,.67.3.68.33a1.56,1.56,0,0,1,0-.19,6.2,6.2,0,0,1,0-1.06c-.14.06-.21.07-.31.11A3.66,3.66,0,0,1,173.92,19.26Z"/><path class="cls-1" d="M174.25,18.45c.22-.92-1,.31,0,0Z"/><path class="cls-1" d="M173.76,22l-.59-1.19c-.63,0-1,.79-1.33.36C172,22.27,172.65,22.25,173.76,22Z"/><path class="cls-1" d="M175.31,23.44l-.22-.59C174.82,22.86,174.7,23,175.31,23.44Z"/><path class="cls-1" d="M174.62,21.6l.47,1.25c.44,0,1.25.22-.14-.55C175.66,22.61,175,22.19,174.62,21.6Z"/><path class="cls-1" d="M175.18,21.15c.69-.35,1.24-.91,1.82.28C177.19,19.57,175.36,19.28,175.18,21.15Z"/><path class="cls-1" d="M183.08,18.42c.33-.14.67-.28,1-.4l-.53-1C183.82,17.53,182.3,18.14,183.08,18.42Z"/><path class="cls-1" d="M170.72,27.35a16.66,16.66,0,0,0,2.22.25l-.41-.86C172.06,27,171.53,27.54,170.72,27.35Z"/><path class="cls-1" d="M172.94,27.6l.6,1.29C173.92,28,173.54,27.72,172.94,27.6Z"/><polygon class="cls-1" points="178.03 24.45 176.62 22.2 177.96 24.78 178.03 24.45"/><polygon class="cls-1" points="169.49 31.22 168.42 30.28 169.99 31.86 169.49 31.22"/><path class="cls-1" d="M169,33.88c-.89-.73-1.89.09-2.39-.55a4.41,4.41,0,0,0,1.32,2.39C167.61,35,167.9,34.43,169,33.88Z"/><path class="cls-1" d="M168.78,37a6.84,6.84,0,0,0-.89-1.23A3.43,3.43,0,0,0,168.78,37Z"/><path class="cls-1" d="M172.75,30.54a2.47,2.47,0,0,0-1.76.35l1.62,0Z"/><path class="cls-1" d="M172.66,30.93h0l-.34.84C172.32,31.66,172.43,31.41,172.66,30.93Z"/><path class="cls-1" d="M172.79,30.44l0,.1C172.91,30.54,173,30.53,172.79,30.44Z"/><path class="cls-1" d="M175.87,26.69c.66.85,1.18,2.35,2.82,1.54C177.79,27.5,176.86,28,175.87,26.69Z"/><path class="cls-1" d="M174.81,30.5l.67-1c-.4-.1-1-.08-1.36-.5Z"/><polygon class="cls-1" points="175.13 31.16 174.81 30.5 174.56 30.86 175.13 31.16"/><path class="cls-1" d="M170.71,35.5a2.09,2.09,0,0,1,.37,1.79,4.57,4.57,0,0,0,1-1.74C171.62,35.33,170.85,34.82,170.71,35.5Z"/><path class="cls-1" d="M171.79,33.31s0,.09.05.13S172.05,33.38,171.79,33.31Z"/><path class="cls-1" d="M169.45,43h.3l-.26-.1Z"/><path class="cls-1" d="M172.38,35.53c.42-.38.13-.77-.26-1.17a3,3,0,0,1-.05,1.19C172.27,35.65,172.41,35.7,172.38,35.53Z"/><path class="cls-1" d="M169,38.74a5.29,5.29,0,0,0,1.05-.57C169.54,38.27,168.66,38.55,169,38.74Z"/><path class="cls-1" d="M171.39,33.48a.41.41,0,0,1,0-.09C171,33.45,171.14,33.48,171.39,33.48Z"/><path class="cls-1" d="M171.39,33.48a3.88,3.88,0,0,0,.73.88,2.39,2.39,0,0,0-.28-.92A2.09,2.09,0,0,1,171.39,33.48Z"/><path class="cls-1" d="M178.65,47.35c-1.37-.46-2.35-2-.55-2.66-.75-1.32-5.53-1.93-8.35-1.73.6.2,1.15.35,1.69,1.65.86-.17,2.44-1.87,3.45-.62.32,1.6-.81,1-1.74,1.5,1.9-.11,2,2.49,4.69,2.88l-.57-1.48C177.68,47,178.19,47.59,178.65,47.35Z"/><path class="cls-1" d="M170.47,41l0-.49a5,5,0,0,1-2.33,1,2.52,2.52,0,0,0,1.39,1.39l.82-2.11Z"/><path class="cls-1" d="M171,38.49c1.42.78,1.76,2,3.59,1.83.26-1.31-1-1.26-1.45-2.22-.22,2.19-.67-.83-2,.43a3.2,3.2,0,0,1-.08-1.24,5.68,5.68,0,0,1-1,.88l.11,0h0c.22,0,.34,0,.2,0a.07.07,0,0,1,0,.06,3,3,0,0,1,.54.25c-.48.52-.42,0-.54-.25a1.45,1.45,0,0,0-.22-.09h0l.24,2.32A3.49,3.49,0,0,0,171,38.49Z"/><path class="cls-1" d="M181.59,30.3a.73.73,0,0,1-.37,0C181.37,30.45,181.48,30.54,181.59,30.3Z"/><path class="cls-1" d="M180.43,30.88c-.17-.22-.73-.52-.43-1,.58-.29.72.22,1.22.34-.31-.41-.77-1.35-1.78-.65l.16.21a5.47,5.47,0,0,1-3.14,1A17,17,0,0,0,180.43,30.88Z"/><path class="cls-1" d="M176.06,34.83l.25,1.94,1.56-.5-.8-.18C177.66,35.19,176.63,35.13,176.06,34.83Z"/><polygon class="cls-1" points="168.64 42.96 167.1 42.29 169.09 43.92 168.64 42.96"/><polygon class="cls-1" points="168.22 45.29 166.85 44.82 167.53 45.65 168.22 45.29"/><path class="cls-1" d="M162.91,177.31l.37.55A1.6,1.6,0,0,0,162.91,177.31Z"/><path class="cls-1" d="M163.34,173.58l-.71-.16C163,173.63,163.29,173.73,163.34,173.58Z"/><path class="cls-1" d="M155.38,101.58c-1.48.51-3.68,1-2.07,1.19l1.6.06A1,1,0,0,1,155.38,101.58Z"/><path class="cls-1" d="M158.45,141.88l.5-.16-1.43-.71Z"/><path class="cls-1" d="M164.88,143.28l-1.14.86A3.72,3.72,0,0,0,164.88,143.28Z"/><path class="cls-1" d="M163.13,197.86l1.57.69C164.75,197.61,163.92,198,163.13,197.86Z"/><path class="cls-1" d="M162.83,68.76a3.38,3.38,0,0,0-1.31,1.41C162.59,69.59,164.07,69.27,162.83,68.76Z"/><path class="cls-1" d="M146.28,174.37a1.24,1.24,0,0,0,.92.54A1,1,0,0,0,146.28,174.37Z"/><path class="cls-1" d="M161.09,72.05a4.83,4.83,0,0,0,.45-.26,2.37,2.37,0,0,1,0-1.62C160.73,70.59,160.17,71.16,161.09,72.05Z"/><path class="cls-1" d="M103.16,241.12c-.07-.07-.14-.09-.19-.17C103,241.16,103.05,241.17,103.16,241.12Z"/><path class="cls-1" d="M79.6,227.63a2.51,2.51,0,0,1,.88-.22C80.31,227.32,80,227.36,79.6,227.63Z"/><path class="cls-1" d="M165.11,54.26c0-.51-.15-.12,0,0Z"/><path class="cls-1" d="M171.8,53.5a1.51,1.51,0,0,0,.69.39A1.86,1.86,0,0,1,171.8,53.5Z"/><path class="cls-1" d="M169.59,79.06l0,0C169.91,79,169.85,79,169.59,79.06Z"/><path class="cls-1" d="M166,53.71a2.17,2.17,0,0,0-.62.5A2.67,2.67,0,0,0,166,53.71Z"/><path class="cls-1" d="M165.25,53.62c.11-.15.18-.27.26-.38C165.27,53.11,165.09,53.12,165.25,53.62Z"/><path class="cls-1" d="M165,55a1.51,1.51,0,0,1,.36-.74c-.13.07-.23.09-.27,0C165.09,54.4,165.07,54.61,165,55Z"/><path class="cls-1" d="M143.79,232.23a1.45,1.45,0,0,1-.19-.12C143.15,232.88,143.41,232.72,143.79,232.23Z"/><path class="cls-1" d="M169.29,117.14s0,0-.07-.07l-.06.06Z"/><path class="cls-1" d="M170.17,119.06c-1.82-1.06-1.51-1.44-1-1.93l-4.6-.2Z"/><path class="cls-1" d="M162.65,186.31l1.52-1.12c2.21,1.64,1.32,2.64,3.41,1.65-4.93-.54-.13-4.76-5.05-5.32l1.1-.73c-.06.23.22.29.16.52,2.49-1.38-3.49-1.46-2.62-3.43.44-.67,1.19-1.1,1.74-.57l-1.1-1.68c.14-.45,1-.26.85.19-.07-.81-.11-1.62-.17-2.43l.14,0a16.58,16.58,0,0,1-2.33-1.72c.76-.55.49.35,1.12.25l-1.07-1.44a1.64,1.64,0,0,1,2.2,1.7c5-.78-1.14-1.22,2-3.61l.51,1.31c2.88-.54,1.95-1.61,3.84-2.84-1,.24-4.68,2.39-5.77.83.42-.37.64-.88-.27-1.76,1.75.17,1.39-.63,1.39-1.58l2.31.3c-.57-1.09-1.76-1.13-2.74-1.84.36-1.12,2.18-1.16,3.73-1.27.57-1.77-3,.95-3.22-1.25,1.06-1.42.23-2.59-1-4.57.92-1,1.4.35,2.1,0l-1.74-1.16c.07-.23.63-.08.91,0-.62-.88-2.31-.34-2.8-1.67-2.52-.65,4-2.11,1.34-4,.71-.3,1.4.36,2.31.36a13.36,13.36,0,0,0-3.48-4.06l1.72-1.29c-1.89.86-3.76-.8-5.29-2.26-.89.28-1.67.51-2,.69l-1-2.13c.41-.19,1.18.12,2.11.57l-.51-.44c1-.58,2.24,0,3.46.64-.48.18-1,.35-1.52.51a11.59,11.59,0,0,0,4.22,1.42,1.43,1.43,0,0,1-.55-.73,2,2,0,0,0,.94.28c.25,0-.24-.3-.78-.7l2.63-.1-1-.24c.66-.78,1.29-1.55,2-2.32-2.33-2.18-5.92-4.31-6.55-7.38,1.78,1,3.06.61,5.29,1-2.48.44.68,2.39,0,3.81.36-.74,1.4-.42,1.75-.17l-1.77-3c1.83.33,1.46-.37,2.32-.95-3.7,0-2.12-2.35-3.07-3.61,1.23.12,2.43.57,1.94,1.85,2.94-1-4-2.54-1.44-3.62,0,.33-.24.48.36.7-1-.92.2-2.63,1.19-2l0,.32c.78-2.07,1.09-6.5-1.92-7.34.4,0,3.65.9,4.25,1.13L159,114.46c2.57.79,9,.58,10.23,2.61a1.52,1.52,0,0,0,.28-2.23c-.44.28-4,.21-4.11-.31,3.16-.79,1.73-.64,4.51-1.8-.66.42-4.67-.88-4.39-1.69.59.24,4.08.66,4.45,1l-3.67-2.78c.63.65,3.41.71,4.63.47-.83.06.39-1.75.09-2.37l-1.09.69c1-2.19-5.28-3.34-4.62-5.61.78.44,5,1.67,5.74.6-2-.92-9.47-4.28-10.65-6.65l1.25-.16-1-1.84A92.8,92.8,0,0,1,171.77,102c1.1-.68,1.44,0,1.58-1.27,1.2-.24,1.54,1,1.53,1.41l1.31-2.84c-2.44-.34-2-2.77-4-3.06l1.85,3.75c-2.43-.33-6.46-3.24-5.61-5.29,1.06-.35,4.2,1.27,5,1.39-.77-.44-1.18-2.34-.56-2.42L174,94.86c1.13-1-2.8-2.59-.2-3.53.26-.46,3.41-.8,2-1.19-2.91.22-11.43-1.4-13.37-2.38.22-.14,3.18-2.05,4.65-2.32,2.32-.35,4.86,2.32,6.85,2a3.93,3.93,0,0,1-1.58-1c.67-.39,2,.66,1.93-.53-2.4-.71.69-2.22-1.95-1-.46-1.25.75-1.06.93-2.36-1.66.06-5.11-2.35-5.54-3.61a5.06,5.06,0,0,0,1.86.1c.74-2.2,2.12-3.15,2.63-5.24.63-.06,1.58-.9,2.52-.22-.36-.4-1.12-.87-1-1.53,2.39-.75,0,1.51,2.73,1.16-1.38-.42-1.55-2.13-2.22-3.26-2.24-.23-.91,2-.24,3.15a9.52,9.52,0,0,1-6.64-5.59c-.31-1.93,2.12-.29,1.77-.69,1.34-3.14-4.53-4.08-1.69-6.28,2.18-.6,3.81.9,5.24,1,.37,1.59-1.75,1.87-1.92,2.85l1.2-1c.52.61.77,1.67.08,2.05,1.94-.47,1.71-5.43,3.92-7.54-.53-.61-1-1.55-1.85-1.38l.06.86c-1.72.34-1.74-2.05-2.71-1.22-.8-1.35-2.16-3-.9-4.27l2.25.29c-.65-.14-1.56.64-1,1.24-.79-.89,3.55-1.53.9-3l-1.79.65c-.8-1.36-2.73-3.31-1.69-4.47-2.3,0,.16.38-2.6.66,3.33,0-1,3.4,2.58,2.94-3.17.21-1.69,1.37-4.5,2,.72.15,1.48-.1.83.94a3.12,3.12,0,0,1,.56.41l-.07.06.1,0c.09.08.12.09,0,0a2.54,2.54,0,0,1,1.24-.29c1.48,1,1,2.76,1.67,3.58-.51.59-.75-.49-1.61-.32l1.05,1.23c-1.61-.31-3.09,1.11-3.62-.7l-.43,1.4c-1.1.62-1.75,1.69-1.25,2.56-.52.59,1.33,2.14.23,1.25l.43,2.47-.4-.07c-.77,2.15,1.57,5.17-1.91,7a3,3,0,0,1-.2,2.86l-1.44-.07c.26,1.07-2.06,2.57-.71,3.3-3.95.21-1.82,4.5-2.85,6l1.8.46a7.3,7.3,0,0,0,.34,4l1.62.24c1,1.52-1.8,3-2,5-.59-.26-.33-.73.12-1-4.1,1.63,1.65,5.49-1.42,7.1.48.65.21,1-.27,1.29a.17.17,0,0,0-.06-.15.58.58,0,0,0-.06.22c-.32.18-.69.36-1,.57a3.33,3.33,0,0,0,1-.46,3.66,3.66,0,0,0,.33,1.77l-1.78-.06a.89.89,0,0,0,0,.15c-.74.48.73.63,2.09.56a4,4,0,0,0,.9,1c-2.88,0,.65,1.78-2.45,1.89,1.38.68.54,3.28,3.54,4.15-.4,0-.63.09-.59-.24-.47.62-.94,1.24-.19,2l-2.26-.1,2.7,2c-1.51.67-2.34.91-3.89-.28,2.25,2.62.69,1.93,3,4.21l-1.42-.33c-.05.67,1.69,2,.45,2.24-3,1-1.59,7.23-4.64,10.66,4.32-.12-2.15,1.49,1.09,2.12-1,.07-1.67.52-2.44-.22.69,2.08-2,2.7.55,4.43-1,.08-1.41-.62-2-.51.2.19.78.74.15.86s-.79-.4-1.18-.77c-.12,2,3,2.65,5.81,3.18-1.5.82-1.37,1.35.43,2.33-1,.22-2.05.67-2.23-.6-.23.67-1.94,4.06.37,4.42-.62.14-.3,1-.06,1.17a9.56,9.56,0,0,0-.54,3.2l.43-.38c2.72.94.48,1.34.67,2.62l-.28-.07c-2.34,2.59.83,1.33-1.79,3.85l1.76,0c3.71.68-2.49,2.22-1.24,4l1.06-.48c1.18,1-5.38,1.92-5.93,2.78-.35.16-.49-.36-.71-.66-2.44,2.11,2.26.54,2.62,2.33-1.27.2-3.09-.73-3.44.42-1.05.5,3.67,3.8,1.15,5.17,1-.26,2-.52,2.61.36.22,1.26-3.93,3-1,4.41a1.56,1.56,0,0,1-.76.16c.7,1,1,3.19,2.62,3.89-6.11.39,2.46,6.1-3.1,5.66,0,1,.05,2,.09,2.94l-.57-.12c-.48,1.85.81,2.6,2.1,3.34-.4.41-.9.06-1.19,0-1.3,2.65-1.08,2.95,1.55,5.39l-1.82.14c1,.67-3,3.79-1.07,6.58a1.57,1.57,0,0,1-.79-.34c1,1.56-.35,3.3-1.12,4.85a2.53,2.53,0,0,0-.36,2.09c.26.63,1,1,2.66,1.38.51.63,1,1.27,1.51,1.91.34-1.15,1-1,1.81-.71s1.6.85,2.18.36c.16.52-.39,1.12-1,1.42s-1.3.3-1.41-.29l.34-.15c-1.69-.36-2.06.34-2.31,1.06s-.41,1.45-1.56,1.21a4.77,4.77,0,0,1-.71,2,4.72,4.72,0,0,1-1.42,1.46,8,8,0,0,1-3.43,1.07c.43.82.89,1.64,1.39,2.45a9.81,9.81,0,0,1-1.07.08c-.47-.56-.92-2-.35-2-.41-.69-.49-.35-.54.24a11.13,11.13,0,0,0,0,1.73c-.81-.45-.73-1.24-.67-1.9s.19-1.21.05-1.23l-.34.24.15.3c-.07.56-.1,1.13-.2,1.55a.88.88,0,0,1-.41.53,1.6,1.6,0,0,1-.82.21c-.94-.44-.63-1.59-1-1.65,0-.19-.15-.27-.55,0h-2.07l1.05,2c-.8,1.13-1.95.1-.74,2.37-1.79-3.51-7.8-.47-8.78-1.51-1.11,1.66-2.37,1.78-4,1.76.44.4.93,2.73-.45,2.59,0-4.92-2.69-1.84-4.17-5.22,1.23,2.21-3.76,1-1.87,4.12-1.17-.27-.27-1.81-1.25-2.86-2.46,2.17-6-.58-9.25.42,0,.64.68,1.56.08,2.59l-2.1-3c-.61.38-.19,3.75-1.63,1.66.23.52.57,1.3.16,1.56-6.81-2.4-12.94,4-20.15-1.12,1,1.14.45,1.33-.23,1.45.48.24.17,1.58.35,2.43l-3-2.1c-.23,2.46-2.93.49-3,2.82l.83-.51c-.86,2.83,2.28,5.84,2.49,9.34,1-3.23,3.92,4.18,5.57-.46.54.66-.28,1.16.06,1.94.37-1.55,1-1.93,2.27-1.39l-.09.38c3.35-.74,5,.57,8.88,1.13l-.47-1.69c.84.14,1.07.66,1.5,1,.65-2.71-2.31.11-1.77-2.86,1.47,3.38,5.77-.58,6.95,3.31,1.26-.12-.59-2,.67-2.07l.45,1,.17-1.42c.85.14,1.41,1.44,1.54,2.35-.21-.09-.54.32-.74.42,1.21,1.15,3-.77,3.38-.4l-1.28-.52c3.32-1.39,7.67-.44,10.75-3l-.34-.79c2.37-1.78,2.13.67,4.84-.33l-.08.2a2.21,2.21,0,0,1,1.93-1.35c-.59,1,1.53,1.7.72,2.86,2.58-1.92,1.22-1.42,2.71-4.63l.57,1.3c.48-1.29.46-1.94,1.81-2.44-1,1.28,1.12,1.95,0,3.62,3.24,2.62,4-3.45,5.81.71.93-3.87-2.75-1.79-2.09-2.67-.76-1.15.8-2.91,1.76-2.63.94,0,2.11,4.59,4.44,4.26-.23,0-.22.29-.45.3.49.43.89.06,1.31-.24a1.26,1.26,0,0,1,.68-.28.64.64,0,0,1,.39.1,2.09,2.09,0,0,1,.65.35c.31-1.18.8-1.2,1.23-1.31s.74-.28.5-1.7c-.45.18-.91.35-1.38.52l-.71.25c-.24.09-.51.17-.66.24.12-.1.32-.26.51-.45a5.34,5.34,0,0,0,.54-.61c.35-.44.67-.93,1-1.35a2.35,2.35,0,0,1,2.87-.94,3.51,3.51,0,0,1-.8,2,.91.91,0,0,0,1.17-.14,1,1,0,0,1,1.2-.21c.52,1.35-.32,1.83-1.44,2.17s-2.47.54-3.29,1.75c.6.54,1.49-.11,2.1-.52s1.05-.55,1,1.07c.16-2.07,1-2.13,2-2.23s2.32-.22,2.5-2.12l.79,1.54c.19-.44.43-1.49,1-1.86a21.87,21.87,0,0,1,.19,2.55c.38-1.31,1.36-1.56,2.48-1.8a8.22,8.22,0,0,0,1.59-.52,1.9,1.9,0,0,0,1-1.21c-.7.84-1.2,1.19-1.59,1.24a.79.79,0,0,1-.81-.4c-.41-.56-.76-1.41-1.76-1.33.47-1.21.9-1.76,1.48-2a4.38,4.38,0,0,1,2,0,4.28,4.28,0,0,0,2.32-.15,3.61,3.61,0,0,0,2-2.56,2.1,2.1,0,0,1-1.2,1.26c-.56.24-1.1.15-1.17-.6a18.52,18.52,0,0,1,1.42-1.23,5.39,5.39,0,0,1,1.63-.9c.5-2,0-2-.63-1.77s-1.41.62-1.67-.32c1.18-.21,1.12-.77.7-1.42a7.62,7.62,0,0,1-1.35-2.2l1.72.37a6.18,6.18,0,0,0,.28-.72,2.63,2.63,0,0,0,.11-.45.93.93,0,0,0-.16-.62,2.18,2.18,0,0,0-1.09-.63c-.85-.3-1.68-.53-.85-1.82.77.47,1.53,1,2.29,1.47-.15-.53-.3-1.05-.46-1.56l2,.5c-1.33-1.78-.91-2.2-.28-3.69a3.44,3.44,0,0,1-2.06-.23,2.25,2.25,0,0,1-.8-.56,1.1,1.1,0,0,1-.32-.77c1.08-.77,1.65.52,1.48-1.17,1.08.42,2.44.89.79,1.56.57.1,1.09.42,1.65.51,1.24-.82.38-2.16.39-2.77a1.09,1.09,0,0,1-.44.64l-2.33-2.54a1.53,1.53,0,0,1,1.7.3c-.17-.51-1-.88-1.08-1.62,1.43.26,2.9.28,3.53,1.34L162,203.49c.63-.13,1.76-1.1,2.28-.78.91-1.23-2.65-3.28-1.42-4.92a1.27,1.27,0,0,1-.71-.67c.42-1.58,2.27-2.88.43-4.9l2.63-.9c-.49-1.52-3.32,1.24-4.13-1.3-.71-1.81,2.22-.5,3-1.07-1.25-.95-3.77-2.66-1.55-4.11C162.91,185.41,162.5,185.8,162.65,186.31Zm.45-18.38c.33.39,1.4,1.21.34,1.37C161.47,168.7,162.46,168.48,163.1,167.93Zm-.94-28.29c.54.34.2.71-.52,1.08C161.54,140.36,161.65,140,162.16,139.64Zm3-79.72.07,0C164.38,60.59,164.71,60.38,165.17,59.92Zm1.15-1.45a.8.8,0,0,0-.69-.27c.4.23.34.6.11,1C166.22,59.19,166.58,59.05,166.32,58.47Zm-30.06,162.8.38.43C136,222.28,136.12,221.8,136.26,221.27Z"/><path class="cls-1" d="M164.13,143.11a3.81,3.81,0,0,1-1,0A.8.8,0,0,0,164.13,143.11Z"/><path class="cls-1" d="M162.84,197.73s0,0,0,.06a1.55,1.55,0,0,0,.31.07Z"/><path class="cls-1" d="M175,87a2,2,0,0,1-1,.45A.8.8,0,0,0,175,87Z"/><path class="cls-1" d="M165.67,49.06l.17,1.16c0-.52.47-.61.81-.79C166.24,49.35,165.61,49.39,165.67,49.06Z"/><path class="cls-1" d="M178.65,42.93c-.17-.21.06-.32-.1-.53l-.8-.18C177.61,42.88,178.12,43.5,178.65,42.93Z"/><path class="cls-1" d="M171.59,49.61c1.45.3,1.14-.48,1.07-1.28a.5.5,0,0,1,0,.13C170.68,47.7,171.14,48.66,171.59,49.61Z"/><path class="cls-1" d="M172.66,48.15a1.13,1.13,0,0,1,.14-.68C172,47.16,172.56,47.69,172.66,48.15Z"/><path class="cls-1" d="M165.88,56.15c.46-.25-1.78-.69-1.14-.74C163,54.56,166.37,58.3,165.88,56.15Z"/><polygon class="cls-1" points="176.46 50.29 174.63 50.07 175.94 50.86 176.46 50.29"/><path class="cls-1" d="M173.64,55.65l.8-1a.68.68,0,0,1-.53-.46C173.67,54.85,173.1,55.54,173.64,55.65Z"/><path class="cls-1" d="M173.91,54.16a1,1,0,0,0,0-1A2.21,2.21,0,0,0,173.91,54.16Z"/><polygon class="cls-1" points="176.57 52.01 176.11 52.25 175.76 53.03 176.57 52.01"/><path class="cls-1" d="M170.16,68.05l.21,1.39c.58.28,1,0,.9-.51C170.92,68.52,170.79,68,170.16,68.05Z"/><path class="cls-1" d="M176,65.41a3.39,3.39,0,0,1-1.49.23l2.19.58Z"/><path class="cls-1" d="M175.58,69.21c.57.27,1.33,2.25,1.56.62C176.56,69.56,176.37,68.18,175.58,69.21Z"/><polygon class="cls-1" points="168.46 87.67 168.5 87.34 164.86 86.61 168.46 87.67"/><path class="cls-1" d="M173.79,106.27c1.15-1.34-2.19-.79-.83-1.93-.8-.52-1.11.94-1.79.43C171.92,105.85,171.32,106.23,173.79,106.27Z"/><path class="cls-1" d="M171.17,104.77a3.45,3.45,0,0,0-.46-.56A1.65,1.65,0,0,0,171.17,104.77Z"/><polygon class="cls-1" points="75.76 226.04 74.69 225.38 75.47 226.55 75.76 226.04"/><path class="cls-1" d="M74.17,229l-.49-2.33-.36,2.2C73.53,228.73,73.94,228.48,74.17,229Z"/><path class="cls-1" d="M168.11,165.7l-.56-.13c-.63.09-.7.31-.84.76Z"/><polygon class="cls-1" points="165.12 178.74 165.19 178.51 163.02 178.76 165.12 178.74"/><path class="cls-1" d="M167,190c.11-.44-.33-1-.21-1.45C167.13,189.58,164.33,190,167,190Z"/><path class="cls-1" d="M243,238.06c-.54,0,0,1.45,0,1.74C243.85,239.2,242.88,237.69,243,238.06Z"/><path class="cls-1" d="M249.43,231.71l.17.62c.11-.64.2-1.27.28-1.89Z"/><path class="cls-1" d="M255.57,227.69c-1.08-.81-1.51-.34-1.9.35s-.8,1.56-1.58,1.54l-.51-.38c.22.69.43,1.39.63,2.09a17.82,17.82,0,0,0,1.68-2.17C254.39,228.35,254.91,227.75,255.57,227.69Z"/><path class="cls-1" d="M262.38,229.24c-.9-.56.09-1.26-1,.45a1.57,1.57,0,0,1,.3.06A2.94,2.94,0,0,1,262.38,229.24Z"/><path class="cls-1" d="M261.72,229.75c-.58.63,1,.25,0,0Z"/><path class="cls-1" d="M264.08,226.6,264,228c.59.25,1.39-.39,1.45.18C265.86,227,265.24,226.81,264.08,226.6Z"/><path class="cls-1" d="M263.38,224.57l-.09.66C263.54,225.33,263.71,225.28,263.38,224.57Z"/><path class="cls-1" d="M263.06,226.64l.23-1.41c-.42-.17-1.05-.74-.16.59C262.63,225.22,263,225.9,263.06,226.64Z"/><path class="cls-1" d="M262.31,226.85c-.83,0-1.6.31-1.51-1.08-.55.85-.52,1.52-.15,1.81S261.73,227.72,262.31,226.85Z"/><path class="cls-1" d="M254.17,225.37l-1-.17.05,1.07C253.16,225.74,254.71,226,254.17,225.37Z"/><path class="cls-1" d="M269.46,222.23a16,16,0,0,0-2-1l0,1C268,222.19,268.76,221.78,269.46,222.23Z"/><path class="cls-1" d="M267.44,221.27l-.08-1.49C266.66,220.54,266.91,221,267.44,221.27Z"/><path class="cls-1" d="M261.34,222.5c.1.9.15,1.79.2,2.71,0-1,.07-2,0-3Z"/><path class="cls-1" d="M272.1,218.5l.7,1.26c-.31-.69-.64-1.38-1-2Z"/><path class="cls-1" d="M273.44,215.82c.67,1,1.91.29,2.21,1.08a4.3,4.3,0,0,0-.65-2.82C275.1,214.88,274.67,215.46,273.44,215.82Z"/><path class="cls-1" d="M274.41,212.61a7.24,7.24,0,0,0,.59,1.47A3.51,3.51,0,0,0,274.41,212.61Z"/><path class="cls-1" d="M268.68,218.34a2.38,2.38,0,0,0,1.83.12L269,218Z"/><path class="cls-1" d="M268.9,218H269c.3-.39.51-.65.61-.76Z"/><path class="cls-1" d="M268.62,218.43l.06-.09C268.53,218.29,268.48,218.29,268.62,218.43Z"/><path class="cls-1" d="M264.3,221.19c-.26-1.07-.24-2.68-2.05-2.48C262.82,219.73,263.88,219.61,264.3,221.19Z"/><path class="cls-1" d="M266.7,217.79c-.31.26-.63.51-1,.76.35.22,1,.39,1.13.91C266.82,218.9,266.77,218.35,266.7,217.79Z"/><polygon class="cls-1" points="266.61 217.04 266.7 217.79 267.05 217.5 266.61 217.04"/><path class="cls-1" d="M272.17,213.77a2.32,2.32,0,0,1,0-1.92,5.17,5.17,0,0,0-1.36,1.58C271.23,213.75,271.85,214.44,272.17,213.77Z"/><path class="cls-1" d="M270.5,215.77a.77.77,0,0,0,0-.15C270.33,215.62,270.27,215.64,270.5,215.77Z"/><path class="cls-1" d="M274.83,206.24l-.3,0,.24.12Z"/><path class="cls-1" d="M270.53,213.39c-.51.29-.33.74-.06,1.23a3.25,3.25,0,0,1,.38-1.19C270.67,213.29,270.55,213.21,270.53,213.39Z"/><path class="cls-1" d="M274.56,210.7a7,7,0,0,0-1.16.42C274,211.11,274.89,211,274.56,210.7Z"/><path class="cls-1" d="M270.94,215.69a.43.43,0,0,1,0,.11C271.34,215.82,271.18,215.75,270.94,215.69Z"/><path class="cls-1" d="M270.94,215.69a4,4,0,0,0-.47-1.07,2.59,2.59,0,0,0,0,1A2,2,0,0,1,270.94,215.69Z"/><path class="cls-1" d="M266.18,200.91c1.33.58,2.12,2.19.3,2.54.62,1.34,5.22,2.68,8,2.77a2.32,2.32,0,0,1-1.47-1.87c-.89.09-2.63,1.58-3.49.21-.16-1.6.91-.88,1.88-1.26-.95-.05-1.39-.72-1.92-1.43a4.28,4.28,0,0,0-2.49-1.81c.16.48.33,1,.46,1.44C267.11,201.37,266.65,200.74,266.18,200.91Z"/><path class="cls-1" d="M273.52,208.18l0,.51A5.19,5.19,0,0,1,276,208a2.52,2.52,0,0,0-1.2-1.63c-.34.71-.73,1.4-1.12,2.08Z"/><path class="cls-1" d="M272.58,210.63c-1.22-1-1.39-2.32-3.2-2.44-.48,1.24.76,1.41,1,2.45.67-2.15.48,1,2-.07a3.28,3.28,0,0,1-.2,1.28,6.77,6.77,0,0,1,1.19-.73h-.11v0l0,0c-.23,0-.35,0-.19-.07,0,0,0,0,0-.06a3.85,3.85,0,0,1-.49-.35c.6-.44.42.09.49.35a1,1,0,0,0,.2.13h0c.1-.8.13-1.63.2-2.43A3.9,3.9,0,0,0,272.58,210.63Z"/><path class="cls-1" d="M260.23,215.77a.85.85,0,0,1,.33.16C260.48,215.71,260.41,215.59,260.23,215.77Z"/><path class="cls-1" d="M261.5,215.65c.09.25.52.72.09,1-.63.06-.6-.45-1-.74.17.48.28,1.51,1.46,1.22l-.09-.25a6,6,0,0,1,3.29.1A20,20,0,0,0,261.5,215.65Z"/><path class="cls-1" d="M266.76,213.21l.23-1.92-1.64.1.74.37C265.3,212.46,266.28,212.78,266.76,213.21Z"/><path class="cls-1" d="M275.64,206.33l1.44.87c-.58-.64-1.17-1.28-1.76-1.9Z"/><polygon class="cls-1" points="276.36 203.96 277.68 204.56 277.09 203.63 276.36 203.96"/><path class="cls-1" d="M212.68,134.19l-.2.54A1.28,1.28,0,0,0,212.68,134.19Z"/><path class="cls-1" d="M215.41,133.21l-.17-.7C215.24,132.93,215.29,133.22,215.41,133.21Z"/><path class="cls-1" d="M275,145c.84-1.33,2.26-3.17.86-2.33l-1.29,1A1.18,1.18,0,0,1,275,145Z"/><path class="cls-1" d="M240.76,125l0,.52,1-1.26Z"/><path class="cls-1" d="M238.12,131l-.42-1.23A3.67,3.67,0,0,0,238.12,131Z"/><path class="cls-1" d="M200.9,144.48l.86,1.42C202.23,145.42,201.43,145.06,200.9,144.48Z"/><path class="cls-1" d="M280.88,179.65a3.32,3.32,0,0,0,1-1.68C281,178.77,279.58,179.35,280.88,179.65Z"/><path class="cls-1" d="M207.35,118.18a1.2,1.2,0,0,0-.08,1.08A1,1,0,0,0,207.35,118.18Z"/><path class="cls-1" d="M282,176a4.25,4.25,0,0,0-.37.36,2.5,2.5,0,0,1,.31,1.66C282.61,177.37,283.08,176.66,282,176Z"/><path class="cls-1" d="M190.39,200a1.62,1.62,0,0,1-.13.19C190.47,200.17,190.46,200.11,190.39,200Z"/><path class="cls-1" d="M187.52,225.33a4,4,0,0,1-.77-.63C186.79,224.9,187,225.11,187.52,225.33Z"/><path class="cls-1" d="M279.88,194.73c0,.53.15.12,0,0Z"/><path class="cls-1" d="M273.2,195.52a1.6,1.6,0,0,0-.69-.38A2,2,0,0,1,273.2,195.52Z"/><path class="cls-1" d="M272,171.24v0C271.73,171.35,271.79,171.33,272,171.24Z"/><path class="cls-1" d="M279,195.31a2.09,2.09,0,0,0,.61-.53A3.11,3.11,0,0,0,279,195.31Z"/><path class="cls-1" d="M279.75,195.39a3,3,0,0,0-.26.4C279.73,195.91,279.9,195.9,279.75,195.39Z"/><path class="cls-1" d="M280,194a1.68,1.68,0,0,1-.34.77c.13-.07.22-.09.27-.05C279.89,194.58,279.9,194.36,280,194Z"/><path class="cls-1" d="M183.84,167a1.77,1.77,0,0,0-.17.06C184.23,167.6,184.17,167.4,183.84,167Z"/><path class="cls-1" d="M254.7,143.52l.09,0v-.08Z"/><path class="cls-1" d="M252.91,143.2c1.87-.84,1.92-.39,1.88.22,1.08-1.08,2.16-2.17,3.22-3.28C256.28,141.13,254.59,142.15,252.91,143.2Z"/><path class="cls-1" d="M206.8,137.94c.52.22,1,.43,1.56.69.33,2.55-.66,2.31,1.1,3.51a3.38,3.38,0,0,1-.77-2.21,1.74,1.74,0,0,1,.77-1c.68-.56,1.36-1.11.25-3.3l1,.63c-.18,0-.07.31-.25.35,1.08.78.85-.11.59-1.22s-.55-2.49.36-2.48c.69.12,1.33.63,1.22,1.31q.31-.8.66-1.62c.37-.06.61.78.25.83.51-.4,1.07-.68,1.62-1l0,.14a14,14,0,0,1,.34-2.77c.69.51-.08.59.24,1.13.21-.52.44-1,.68-1.46.79,1.13.29,2.52-.44,2.59,1.23,2.18,1.31,1.86,1.48,1.22s.43-1.57,1.77-.46l-.74.87c.66,1.28,1.06,1.63,1.49,1.83a3.91,3.91,0,0,1,1.51,1.1c-.2-.43-.89-1.41-1.5-2.46s-1.11-2.15-.7-2.86c.4.3.82.39,1.22-.71.35,1.74.82,1.16,1.52,1l.32,2.32c.61-.76.39-1.93.71-3,.91.11,1.26,1.87,1.58,3.39.63.15.37-.56.1-1.37s-.53-1.73.28-2a1.24,1.24,0,0,0,1.58,0,15.29,15.29,0,0,0,1.78-1.56c.79.82-.2,1.43.07,2.1.26-.61.53-1.23.81-1.85.17.05.08.62,0,.91.66-.66.19-2.33,1.26-2.86.25-1.26.72-.27,1.24.68a3.6,3.6,0,0,0,.84,1.17c.31.21.65.12,1.1-.54.16.7-.42,1.38-.5,2.28,1-.79,1.41-1.09,1.81-1.4s.8-.76,1.86-1.82c.26.6.5,1.19.72,1.82-.31-2,1.36-3.58,3.06-4.79a14.68,14.68,0,0,0-.21-2.13c.74-.18,1.5-.38,2.27-.52.08.45-.41,1.11-1,1.91l.52-.39c.31,1.06-.54,2.17-1.42,3.21l-.09-1.56a12,12,0,0,0-2.17,3.86,1.31,1.31,0,0,1,.72-.42,2.46,2.46,0,0,0-.45.86c0,.25.3-.18.76-.65-.19.85-.38,1.69-.6,2.55l.46-.93q.65,1.17,1.2,2.28c1.18-.88,2.52-2,4-2.88a6.51,6.51,0,0,1,4.39-1.11c-1.57,1.23-1.78,2.55-3,4.43.37-1.19-.19-1.21-.91-1.06s-1.57.46-2,0c.44.51-.2,1.39-.52,1.65.95-.31,1.92-.56,2.94-.81-1,1.55-.33,1.4-.31,2.37.83-1.65,1.5-1.94,2.15-1.85a6.7,6.7,0,0,1,1,.28,1.76,1.76,0,0,0,1,.11c-.7,1-1.6,1.86-2.31,1-.3,1.44.6.81,1.6.15s2-1.33,1.8,0c-.24-.15-.24-.39-.71,0,1.21-.48,1.84,1.27.86,1.82l-.22-.16c1.13,1.41,3.85,3.75,6.38,1.94-.29.28-3,2.32-3.48,2.67a80.34,80.34,0,0,1,10.24-4.09,56.51,56.51,0,0,0-4.41,3.61c-1.63,1.35-3.25,2.46-4.29,2.38,0,.57-.06,1.2,1.2,1.36.15-.45,2.64-2.93,3.08-2.74a15,15,0,0,0-1.2,2.13,11.08,11.08,0,0,1-.88,2c.24-.68,3.94-2.66,4.25-1.94-.58.25-3.41,2.33-3.91,2.36,1.44-.29,2.92-.54,4.42-.74-.89,0-3,1.76-3.81,2.68.6-.56.65,1.29,1.23,1.47l.47-1.08c.22,1,1.69.71,3.25.48s3.21-.45,3.55.59c-.88.1-5,1.66-5.05,2.76a53.85,53.85,0,0,1,6.14-1.06c2.56-.27,5.14-.2,6.28.53l-1,.77c.6.36,1.19.72,1.79,1.1-1.67,0-4.25-.13-6.84-.17l-6.47-.09c-.6,1-1.21.71-.74,1.65a1.38,1.38,0,0,1-2-.14c.07.81.09,1.64.14,2.43,2.3-.94,2.89.95,4.83.27-1.09-.63-2.16-1.22-3.28-1.73a9.82,9.82,0,0,1,4.44-.57c1.51.17,2.77.78,2.86,1.77-.79.74-4.3.9-5.07,1.19.9,0,2,1.2,1.48,1.52l-1.46-.39c-.32.59.56.76,1.3,1s1.27.63.26,1.47c-.07.46-2.84,1.83-1.4,1.61,2.61-1.16,11.05-3.15,13.23-3a20.73,20.73,0,0,1-1.29,1.72,9.84,9.84,0,0,1-2.16,2.08,6.94,6.94,0,0,1-3.67.35,7,7,0,0,0-3.45.26,4.3,4.3,0,0,1,1.84.31c-.5.53-2.08.11-1.66,1,2.49-.16,0,2,2.15.19.81.9-.36,1.09-.17,2.22a7.1,7.1,0,0,1,3.46.23,6,6,0,0,1,2.87,1.43,5.67,5.67,0,0,0-1.82.39c-.13,2.17-1.26,3.31-1.31,5.26-.61.17-1.38,1.07-2.43.64.43.29,1.26.58,1.29,1.18-2.19,1-.28-1.33-2.9-.59a2.33,2.33,0,0,1,1.62,1c.4.5.71,1.09,1.13,1.55,1.12,0,1.27-.53,1-1.12a6.5,6.5,0,0,0-1.34-1.7c3.08.09,6.27,1.79,7.49,4.16.6,1.84-2.06.56-1.65.91-.9,3.13,5,3.51,2.36,6-2.14.74-3.85-.63-5.29-.63-.5-1.47,1.56-1.89,1.63-2.85l-1.1,1c-.58-.53-.92-1.49-.31-1.91-.91.32-1.21,1.6-1.5,3.08s-.71,3.14-1.79,4.11c.55.56,1.05,1.44,1.9,1.28l-.1-.81c1.7-.35,1.8,1.94,2.75,1.14.85,1.29,2.2,2.93.94,4.18l-2.23-.34c.64.16,1.56-.59,1-1.18.39.43-.47.8-1.14,1.21s-1.1.89.2,1.66l1.8-.58c.38.69,1,1.55,1.45,2.39s.55,1.65,0,2.21c2.3.11-.14-.38,2.66-.52-3.31-.16,1.24-3.52-2.42-3.15,1.59-.06,2-.41,2.43-.82a3.41,3.41,0,0,1,2.13-1.19c-.73-.15-1.49.11-.83-1a3.83,3.83,0,0,1-.57-.42l.08-.06-.11,0c-.09-.08-.11-.09,0,0a2.74,2.74,0,0,1-1.24.31c-1.48-1-1-2.77-1.74-3.56.49-.59.76.46,1.61.27l-1.08-1.19c1.62.26,3-1.29,3.65.54l.36-1.47c1.08-.7,1.65-1.89,1.07-2.75.47-.67-1.52-2.05-.34-1.25-.22-.83-.48-1.67-.72-2.48l.41,0c.26-1.15-.34-2.42-.58-3.67a3.6,3.6,0,0,1,1.34-3.83,3.28,3.28,0,0,1-.45-2.95l1.41-.28c-.54-1,1.32-3.21-.22-3.57,1.85-.69,2-2,1.64-3.39s-1.09-2.75-.94-3.74l-1.84.23a4.75,4.75,0,0,0-.58-1.84,14.47,14.47,0,0,0-1.33-1.9l-1.57.44c-.79-.49-.69-1.36-.52-2.38a5.74,5.74,0,0,0,.07-3.18c.64-.05.65.52.4,1,1.37-1.73.35-2.89-.87-3.84s-2.5-1.77-1.75-3.36c-.78-.3-.75-.76-.55-1.3a.19.19,0,0,0,.14.09.85.85,0,0,0-.08-.22A8,8,0,0,0,275,145a3.79,3.79,0,0,0-.5,1,4,4,0,0,0-1.37-1.32l1.44-1c-.05,0-.06-.08-.12-.11.28-.9-1-.09-2,.83a3.63,3.63,0,0,0-1.33-.27c1.14-.9.7-1.16.29-1.45s-.81-.59.31-1.68c-1.45.35-2.72-2.23-5.46-.75.32-.24.38-.51.59-.24-.07-.79-.24-1.55-1.3-1.55l1.62-1.56c-1.12.17-2.21.36-3.31.59.5-1.54.84-2.38,2.79-2.71a7.21,7.21,0,0,1-2.69-.42,4.76,4.76,0,0,0-2.5-.1l1.13-.9c-.52-.48-2.63.06-2.06-1,.43-1.48-.85-3-2.52-4.43s-3.66-3-4.69-5.23c-.84,2-1,1.34-1.13.52s-.46-1.79-1.37-.41c.32-1,.09-1.78,1.12-2.19a2.49,2.49,0,0,1-1.35-.54c-.35-.26-.63-.56-.92-.8-.57-.49-1.19-.75-2.44.18.21-1,1-1.13,1.1-1.76-.25.1-1,.5-1-.14s.65-.64,1.16-.89c-2.22-.78-3.59,2-4.81,4.66-.44-1.7-1.09-1.66-2.4-.11,0-1-.31-2.17,1.05-2.07l-.89-.56a5.91,5.91,0,0,0-1.41-.66c-1-.32-2-.31-2.33.82-.08-.66-1-.39-1.2-.16-.79-.22-1.21-.39-1.64-.51a4.77,4.77,0,0,0-1.67-.2l.39.43c-1,2.72-1.36.49-2.67.69l.06-.28a6.69,6.69,0,0,0-.85-.63,1.84,1.84,0,0,0-.57-.21.78.78,0,0,0-.62.16c-.32.2-.6.36-2.06-.82l.17,1.75c-.12,1.87-.7,1.33-1.52.53s-1.91-1.89-2.67-1.09c.23.3.46.62.68.94-.38.65-1.1-.51-1.93-1.93s-1.75-3-2.28-3.18c-.27-.29.25-.57.52-.85-1.48-.92-1.49-.32-1.32.58s.44,2.14-.42,2.58c-.58-1.14-.13-3.18-1.47-3.14-.43-.41-1.19.73-2,1.82s-1.77,2-3,1.15c.66.81,1.28,1.62.68,2.54-.56.36-1.66-.2-2.69-.44a2,2,0,0,0-1.35,0c-.35.2-.57.65-.55,1.46a1.49,1.49,0,0,1-.51-.6,23,23,0,0,1-1.43,1.87,3.29,3.29,0,0,0-.77,2.36c-.88-1.25-1.59-1.53-2.18-1.32a2,2,0,0,0-.82.6,8.2,8.2,0,0,0-.65,1c-.81,1.41-1.4,2.76-2.92.43l-2.35,2-.27-.5c-1.82.87-1.52,2.41-1.19,3.84-.59,0-.67-.62-.82-.87a7.07,7.07,0,0,0-1.69.68,2.13,2.13,0,0,0-.86.85c-.35.7-.37,1.67-.18,3.49l-1.45-1.1c.15.61-1.06.83-2.39,1.4a6.32,6.32,0,0,0-1.82,1.24,2.85,2.85,0,0,0-.89,2.1,1.65,1.65,0,0,1-.46-.74c-.09,1.91-2.23,2.66-3.7,3.72s-2.36,2.24.24,4.35c.14.86.27,1.7.45,2.53.83-1,1.42-.56,2,0s1.1,1.41,1.82,1.24c-.1,1-2.87,1.3-2.66.07l.38,0c-2.85-2-2.49,2.27-4.56,1.25a34.4,34.4,0,0,1-1.65,3.47c-.57,1.14-1.27,2.24-1.84,3.38a29.1,29.1,0,0,0-2.91,6.93l2.72,0-.47,1.58c-.7.31-2.17.2-1.83-1-1.61.34.85,2.22,1.43,2.33-.7,1.05-1.44.72-2,.18s-1-1.27-1.08-.91l0,1,.35-.17c1,1,2.09,1.2,1.75,2.59-.66.83-1.71.25-1.85.6-.19,0-.29.09-.13.54l-.45,2.11,2.19-.65c.94,1-.3,1.93,2.17,1.19-1.91.52-2.35,2.46-2.43,4.33s.26,3.67-.27,4.12c1.58,1.25,1.57,2.47,1.54,4,.4-.42,2.75-.81,2.56.5-2.45,0-2.94.63-3.22,1.48a3.29,3.29,0,0,1-2,2.68c1.11-.65,1.35.31,1.75,1.16s.93,1.6,2.44.58c-.21,1.17-1.79.36-2.79,1.41a3.8,3.8,0,0,1,1,2,12.17,12.17,0,0,1,.07,2.36c-.09,1.66-.23,3.49.59,5,.63-.14,1.4-1,2.53-.57-.84.88-1.67,1.8-2.49,2.73.54.56,3.71-.66,2,1.27.44-.35,1.12-.88,1.46-.53-.28,3.66,1.81,6.63,3.83,9.45a29.76,29.76,0,0,1,2.79,4.45,15.8,15.8,0,0,1,1.49,5.83c.23-1.58.77-1.16,1.33-.66-.12-.55,1.16-1.08,1.73-1.74.09,1.23.17,2.54.39,3.8,1-.7,1.64-.2,2.23.3s1.2.92,2,.11l-1-.25c1.35-.67,1.95-2.13,2.61-3.67a13.86,13.86,0,0,1,2.6-4.47c-1.43.78-1.24-.54-1.06-1.81s.2-2.34-2-1.57c.3-.76,1.07-.49,1.55-1.18-1.4.65-2.05.46-2.1-.76l.36-.14c-2-2-1.41-3.86-2-6.94l-1.41,1c-.12-.7.3-1.07.54-1.54-2.71.51.75,1.72-2.13,2.47a2.19,2.19,0,0,0,.83-1.74,4.92,4.92,0,0,0-.46-1.64c-.44-1.07-.72-2.2,1-3.2-.36-.95-1.76,1-2.1.05l.91-.65-1.4.25c0-.74,1.13-1.51,2-1.83-.05.18.4.34.53.47.89-1.2-1.17-2.14-.88-2.56l-.34,1.13a6.42,6.42,0,0,1-1-2,23.12,23.12,0,0,1-.64-2.24,15.32,15.32,0,0,0-.77-2.22,6.58,6.58,0,0,0-1.45-2l-.77.35c-.93-1-.77-1.44-.5-1.95a2.09,2.09,0,0,0,.14-2.19l.2.07a1.83,1.83,0,0,1-1.28-1.68c1,.52,1.77-1.27,2.88-.56-.91-1.09-1.22-1.38-1.72-1.54a12.84,12.84,0,0,1-2.72-1l1.34-.41c-1.23-.52-1.92-.55-2.25-1.8,1.15,1,2.07-.78,3.59.33,1.51-1.25.74-2.14.21-2.93s-.91-1.41,1.28-1.83c-3.67-1.41-2.19,2.05-3,1.36-1.25.51-2.74-1.12-2.32-1.94.12-.86,4.91-1,5-3,0,.19.25.24.21.43,1-.6-1.08-1.61.58-2.28-2.16-.86.29-1.13-2.51-1.77.1.65.25,1.3.37,1.94a20.16,20.16,0,0,0-1.88-2c-.6-.72-.89-1.52.09-2.24a5.68,5.68,0,0,1,1.55,1.37c.93-.34-.37-1.09.59-1.42,1.4.38,1.45.95,1.39,1.62a1.94,1.94,0,0,0,.78,2.17c1.26-.31-1.68-2.39,1.28-1.29-1.88-.75-1.66-1.21-1.31-1.7s.84-1-.48-2l1.66.5c-.21-.27-.9-.89-.77-1.25l2,1.22c-.81-.73-.29-1.13.35-1.46s1.41-.59,1.05-1.21c-.55,2-2.14-.16-3.62.35-1.41-3.24,4.73-.16,4.89-3,.1.43-1.47,1-2,.16a3.82,3.82,0,0,1,2.34-.81c.37-1.83-1.77-.4-2.46-1.52,2.22.2-.42-1.18-.7-2.27l1.62.71c1.91-1.52-3.1-2.08-1-3.34.6.63,1.2,1.24,1.81,1.84l-.11-1.2,1.7,1.09c-.87-1.65-.31-1.78.69-2.43-1.2-.39-2.71-1.7-2.26-2.62,1.26,0,1.23,1.18,1.77-.11.76.86,1.75,1.82.07,1.5.47.35.81.83,1.27,1.17,1.34,0,1.13-1.29,1.36-1.71a.78.78,0,0,1-.62.2c-.34-1-.68-2-1-3a1.88,1.88,0,0,1,1.3,1.12c.07-.42-.43-1.11-.2-1.67,1.07,1,2.28,1.82,2.37,2.82-.09-.76-.16-1.55-.23-2.36a7.05,7.05,0,0,0,1.19.33c.44.12.84.27,1,.52.63-.08.45-.94.34-1.85s-.09-1.82.76-1.9a1.25,1.25,0,0,1-.21-.87,3.88,3.88,0,0,1,.92-.34,5.74,5.74,0,0,0,1-.24c.61-.22,1-.68.92-1.9.77.49,1.52,1,2.26,1.49.24-.56-.46-1-1.14-1.59s-1.34-1.19-.86-2.18c.6-1.53,1.72,1.41,2.52,1.71a8.82,8.82,0,0,1-.19-2.53c.13-.76.57-1.27,1.68-.69C207.48,137.7,207,137.56,206.8,137.94Zm12.54-6.73c-.2.4-.43,1.67-.88.72C218.25,129.9,218.74,130.72,219.34,131.21Zm22.4-2.19c-.44.45-.64,0-.75-.73C241.31,128.28,241.59,128.47,241.74,129Zm37.88,59.92-.08-.05C280.35,188.18,280,188.43,279.62,188.94Zm-1.07,1.55a.79.79,0,0,0,.7.22c-.41-.2-.37-.58-.17-1C278.61,189.76,278.25,189.91,278.55,190.49Zm-107.2-20.4.49-.28C172.26,170.61,171.83,170.35,171.35,170.09Z"/><path class="cls-1" d="M238.42,130.3a5.65,5.65,0,0,1,.2-.94A1,1,0,0,0,238.42,130.3Z"/><path class="cls-1" d="M200.74,144.21l0,0a2.43,2.43,0,0,0,.2.25Z"/><path class="cls-1" d="M264.55,166.12a2,2,0,0,1,.81-.68C264.93,165.49,264.59,165.68,264.55,166.12Z"/><path class="cls-1" d="M279.22,200.14l-.11-1.23c-.07.55-.5.63-.85.82C278.66,199.82,279.3,199.79,279.22,200.14Z"/><path class="cls-1" d="M265.74,205c.14.22-.1.29,0,.51l.76.31C266.75,205.21,266.33,204.55,265.74,205Z"/><path class="cls-1" d="M273.33,199.36c-1.43-.37-1.15.41-1.14,1.2a.28.28,0,0,1,0-.13C274.11,201.31,273.76,200.33,273.33,199.36Z"/><path class="cls-1" d="M272.18,200.73a1.14,1.14,0,0,1-.2.66C272.74,201.75,272.24,201.19,272.18,200.73Z"/><path class="cls-1" d="M279.07,192.81c-.46.28,1.8.64,1.16.71C282,194.33,278.54,190.64,279.07,192.81Z"/><path class="cls-1" d="M268.51,198.41l1.82.33L269,197.9C268.87,198.07,268.7,198.24,268.51,198.41Z"/><path class="cls-1" d="M271.34,193.44l-.78,1a.71.71,0,0,1,.53.45C271.32,194.2,271.87,193.55,271.34,193.44Z"/><path class="cls-1" d="M271.09,194.86a.91.91,0,0,0,.06,1A2,2,0,0,0,271.09,194.86Z"/><polygon class="cls-1" points="268.44 196.79 268.9 196.59 269.26 195.87 268.44 196.79"/><path class="cls-1" d="M273.74,181.48l-.42-1.28c-.62-.17-1,.14-.81.61C272.92,181.14,273.12,181.62,273.74,181.48Z"/><path class="cls-1" d="M268.35,184.52a3.69,3.69,0,0,1,1.45-.33l-2.25-.33Z"/><path class="cls-1" d="M268.22,181.1c-.62-.18-1.67-1.8-1.65-.36C267.19,180.9,267.61,182.1,268.22,181.1Z"/><polygon class="cls-1" points="270.4 163.39 270.48 163.68 274.13 163 270.4 163.39"/><path class="cls-1" d="M257.51,152.42c-.28,1.42,2.19-.77,1.66.68.93-.12.43-1.19,1.24-1.26C259.24,151.58,259.54,151,257.51,152.42Z"/><path class="cls-1" d="M260.41,151.84a3.75,3.75,0,0,0,.68.09A1.9,1.9,0,0,0,260.41,151.84Z"/><path class="cls-1" d="M189.14,229.59c.12.44.26.88.4,1.32l.22-1.43Z"/><path class="cls-1" d="M192.55,228.78l-1.25,2c.62-.42,1.22-.86,1.82-1.29C192.87,229.46,192.36,229.32,192.55,228.78Z"/><path class="cls-1" d="M222.24,135.48l-.05-.57c-.21-.58-.38-.6-.71-.62Z"/><polygon class="cls-1" points="212.79 136.67 212.97 136.65 211.76 134.84 212.79 136.67"/><path class="cls-1" d="M207.45,143.13c.28-.13.3-.73.62-.83C207.73,143,205.77,141.07,207.45,143.13Z"/><path class="cls-1" d="M249.94,281.28c-.48-.12-.34,1.4-.42,1.68C250.41,282.6,249.9,280.88,249.94,281.28Z"/><path class="cls-1" d="M256.2,276.36l.17.62c.07-.61.11-1.2.13-1.77C256.42,275.59,256.32,276,256.2,276.36Z"/><path class="cls-1" d="M260.71,273.18c-1.1-.76-1.29-.39-1.49.18s-.35,1.37-1,1.28l-.48-.4c.28.65.55,1.31.79,2a6.57,6.57,0,0,0,1.07-1.9C259.92,273.7,260.17,273.19,260.71,273.18Z"/><path class="cls-1" d="M266.92,274.71c-.93-.48-.24-1.08-.73.38l.29.06A2.2,2.2,0,0,1,266.92,274.71Z"/><path class="cls-1" d="M266.48,275.15c-.38.55.94.22,0,0Z"/><path class="cls-1" d="M267.72,272.55c.1.38.21.76.29,1.16.6.21,1.1-.3,1.31.17C269.38,272.91,268.77,272.74,267.72,272.55Z"/><path class="cls-1" d="M266.53,270.9l.11.53C266.88,271.51,267,271.47,266.53,270.9Z"/><path class="cls-1" d="M266.85,272.56l-.21-1.13c-.41-.15-1.11-.62,0,.47C266.08,271.4,266.6,272,266.85,272.56Z"/><path class="cls-1" d="M266.24,272.71c-.72,0-1.32.21-1.59-.92C264.1,273.1,265.62,274.13,266.24,272.71Z"/><path class="cls-1" d="M259,271.09l-.86-.22c.11.3.21.6.31.91C258.28,271.33,259.59,271.65,259,271.09Z"/><path class="cls-1" d="M271.25,269.27a19.41,19.41,0,0,0-2.08-.76l.32.75A2.63,2.63,0,0,1,271.25,269.27Z"/><path class="cls-1" d="M269.17,268.51l-.49-1.11C268.27,267.94,268.61,268.26,269.17,268.51Z"/><path class="cls-1" d="M264.17,269.22c.34.69.67,1.4,1,2.14-.26-.81-.55-1.59-.86-2.35Z"/><path class="cls-1" d="M272.59,266.62l1,.92c-.48-.5-1-1-1.46-1.49Z"/><path class="cls-1" d="M273.12,264.78c.87.69,1.83.27,2.32.82,0-.57-.67-1.31-1.31-2C274.42,264.18,274.14,264.57,273.12,264.78Z"/><path class="cls-1" d="M273.22,262.63a7.38,7.38,0,0,0,.91,1A3.53,3.53,0,0,0,273.22,262.63Z"/><path class="cls-1" d="M269.46,266.41a3,3,0,0,0,1.69.14l-1.54-.39Z"/><path class="cls-1" d="M269.56,266.15h.05l.33-.52C269.89,265.7,269.79,265.86,269.56,266.15Z"/><path class="cls-1" d="M269.43,266.47l0-.06C269.31,266.37,269.26,266.36,269.43,266.47Z"/><path class="cls-1" d="M266.37,268.34c-.53-.82-1-2-2.53-1.92C264.64,267.19,265.54,267.14,266.37,268.34Z"/><path class="cls-1" d="M267.52,265.94l-.64.51a3.15,3.15,0,0,1,1.26.7C267.94,266.74,267.73,266.34,267.52,265.94Z"/><polygon class="cls-1" points="267.22 265.41 267.52 265.94 267.75 265.75 267.22 265.41"/><path class="cls-1" d="M271.41,263.33A1.34,1.34,0,0,1,271,262a2.23,2.23,0,0,0-.88,1C270.54,263.29,271.29,263.78,271.41,263.33Z"/><path class="cls-1" d="M270.41,264.65a.93.93,0,0,1-.05-.1C270.22,264.54,270.16,264.56,270.41,264.65Z"/><path class="cls-1" d="M272.14,258.64l-.29,0,.25.1Z"/><path class="cls-1" d="M269.81,263c-.4.18-.11.49.27.84a1.54,1.54,0,0,1,0-.8C269.91,263,269.77,262.9,269.81,263Z"/><path class="cls-1" d="M272.88,261.39a6.37,6.37,0,0,0-1,.2C272.42,261.61,273.25,261.57,272.88,261.39Z"/><path class="cls-1" d="M270.8,264.62a.13.13,0,0,1,0,.07C271.2,264.72,271,264.67,270.8,264.62Z"/><path class="cls-1" d="M270.8,264.62a4.17,4.17,0,0,0-.72-.76,1.83,1.83,0,0,0,.28.69A2.65,2.65,0,0,1,270.8,264.62Z"/><path class="cls-1" d="M262.86,254.71c1.37.45,2.46,1.53.78,1.63.85.9,5.49,2,8.21,2.27a3.07,3.07,0,0,1-1.78-1.26c-.81,0-2.2.8-3.27-.11-.45-1,.69-.49,1.54-.66-1.82-.2-2.21-1.78-4.8-2.35l.69.94C263.83,255.06,263.28,254.63,262.86,254.71Z"/><path class="cls-1" d="M271.31,259.76l.09.32a5,5,0,0,1,2.16-.29,3.17,3.17,0,0,0-1.46-1.08l-.61,1.21Z"/><path class="cls-1" d="M271,261.24c-1.42-.72-1.86-1.53-3.59-1.71-.14.76,1.07.94,1.55,1.64.09-1.41.69.66,1.87,0a1.54,1.54,0,0,1,.13.85,4.74,4.74,0,0,1,.93-.45h-.13c-.2,0-.32,0-.19,0a0,0,0,0,1,0,0c-.2-.08-.38-.17-.54-.25.42-.25.4.07.54.25l.21.09h0l-.4-1.51C271.1,260.27,271,260.61,271,261.24Z"/><path class="cls-1" d="M261.19,264.21a1.51,1.51,0,0,1,.34.14C261.39,264.19,261.29,264.1,261.19,264.21Z"/><path class="cls-1" d="M262.27,264.2c.15.18.67.54.39.73-.54,0-.67-.36-1.13-.58.29.34.7,1.09,1.64.94l-.14-.18a7,7,0,0,1,2.93.21A33.41,33.41,0,0,0,262.27,264.2Z"/><path class="cls-1" d="M266.3,262.76l-.31-1.3h-1.47l.77.28C264.77,262.19,265.75,262.45,266.3,262.76Z"/><polygon class="cls-1" points="272.92 258.76 274.46 259.4 272.41 258.09 272.92 258.76"/><polygon class="cls-1" points="273.14 257.34 274.51 257.81 273.78 257.19 273.14 257.34"/><path class="cls-1" d="M232.36,220.67l-.09.46A1.05,1.05,0,0,0,232.36,220.67Z"/><path class="cls-1" d="M234,220.25l-.16-.69C233.87,220,233.92,220.24,234,220.25Z"/><path class="cls-1" d="M273.11,220.1c1-1.07,2.6-2.63,1.16-1.85l-1.35.85C273.35,219.36,273.32,219.72,273.11,220.1Z"/><path class="cls-1" d="M248.49,211.18l0,.5.61-1.43Z"/><path class="cls-1" d="M246.94,217.56c-.07-.36-.15-.73-.23-1.09A4.16,4.16,0,0,0,246.94,217.56Z"/><path class="cls-1" d="M224.85,226.22l.65,1.5C225.83,227.49,225.25,226.91,224.85,226.22Z"/><path class="cls-1" d="M275.57,242.74c.68-.34.95-.67,1.05-1C275.68,242.22,274.28,242.47,275.57,242.74Z"/><path class="cls-1" d="M227.81,204.47a1.56,1.56,0,0,0,0,1A1.25,1.25,0,0,0,227.81,204.47Z"/><path class="cls-1" d="M276.71,240.53a3.55,3.55,0,0,0-.39.2,1.13,1.13,0,0,1,.3,1C277.33,241.45,277.78,241,276.71,240.53Z"/><path class="cls-1" d="M210.66,250.76c-.07,0-.09.06-.17.1C210.7,250.82,210.71,250.79,210.66,250.76Z"/><path class="cls-1" d="M201.47,267.85a1.46,1.46,0,0,1-.52-.43C200.93,267.59,201.08,267.73,201.47,267.85Z"/><path class="cls-1" d="M275.29,251.94c0,.33.16.09,0,0Z"/><path class="cls-1" d="M268.86,251.88a2.71,2.71,0,0,0-.72-.3A3.2,3.2,0,0,1,268.86,251.88Z"/><path class="cls-1" d="M267,237.16v0C266.67,237.21,266.73,237.2,267,237.16Z"/><path class="cls-1" d="M274.49,252.23A1.62,1.62,0,0,0,275,252,2,2,0,0,0,274.49,252.23Z"/><path class="cls-1" d="M275.23,252.34l-.21.23C275.27,252.67,275.44,252.68,275.23,252.34Z"/><path class="cls-1" d="M275.3,251.5a.67.67,0,0,1-.27.45.47.47,0,0,1,.26,0A2.28,2.28,0,0,1,275.3,251.5Z"/><path class="cls-1" d="M209.82,233.56l-.15,0C210.1,234.06,210.07,233.92,209.82,233.56Z"/><path class="cls-1" d="M255.51,222.72l.07,0,0-.05Z"/><path class="cls-1" d="M254.2,223.08c1.6-1.18,1.57-.87,1.4-.45q1.62-1.6,3.21-3.25C257.23,220.57,255.7,221.81,254.2,223.08Z"/><path class="cls-1" d="M228.81,222.61l1.1,1.07c.42,2.37-.3,1.83,1,3.43-1.05-2.24-.65-2.56-.25-2.88s.8-.62-.09-2.93l.72.84c-.11,0,0,.27-.13.26,1.5,2-.82-3.54.34-3.22a1.82,1.82,0,0,1,.87,1.49c.09-.46.19-.92.3-1.39.23,0,.44.87.21.84.31-.23.61-.49.93-.7l0,.14a20.08,20.08,0,0,1,0-2.59c.47.61,0,.55.23,1.13l.31-1.33c.56,1.18.37,2.52-.07,2.45.92,2.32.93,2,1,1.39s.15-1.5,1-.2l-.39.72c1,2.68,1.13,1.61,2,3.21-.14-.44-.62-1.46-1.06-2.54a5.59,5.59,0,0,1-.63-2.88c.26.33.52.45.68-.6.33,1.72.57,1.23,1,1.08l.35,2.31a14.45,14.45,0,0,0,.21-3c.53.16.86,1.93,1.14,3.44.37.15.17-.56,0-1.37s-.42-1.73,0-2c.74.85,1.08-.19,1.84-1.59.49.8,0,1.43.15,2.1.11-.62.23-1.25.36-1.87.11,0,.08.61.07.9.34-.73,0-2.33.58-3,.09-1.29.41-.33.74.58s.67,1.79,1.14.34a16.86,16.86,0,0,1-.22,2.33c.51-.92.75-1.23,1-1.64s.44-.9,1-2.13c.16.53.3,1.07.43,1.63a8.53,8.53,0,0,1,1.78-5.29,17,17,0,0,0-.15-2c.46-.33.93-.67,1.42-1a5.4,5.4,0,0,1-.64,2.07l.33-.5c.2.92-.34,2.18-.88,3.41l-.06-1.48a19.88,19.88,0,0,0-1.28,4.18,1.42,1.42,0,0,1,.42-.56,3.94,3.94,0,0,0-.26.93c0,.25.17-.24.44-.79l-.38,2.58.28-1a14.74,14.74,0,0,1,.59,1.85,38.93,38.93,0,0,1,2.48-3.79,5.61,5.61,0,0,1,2.91-2.28c-1.14,1.58-1.35,2.81-2.32,4.86.34-1.15,0-1-.46-.67s-1,.93-1.19.58c.21.36-.23,1.35-.42,1.67.55-.55,1.15-1.1,1.79-1.63-.76,1.7-.33,1.34-.43,2.17,1.36-3.41,1.78-1.82,2.76-2.58-.59,1.07-1.31,2.12-1.63,1.62-.38,1.35.26.47,1-.41s1.53-1.75,1.18-.58c-.14-.06-.1-.26-.48.24.86-.74,1.09.44.31,1.2l-.13-.05a1.83,1.83,0,0,0,1.47.86,4.08,4.08,0,0,0,2.84-1.27c-.28.29-2.71,2.58-3.17,3a56.22,56.22,0,0,1,9-5.75c-1.08.78-2.7,2.37-4.3,3.75a17.24,17.24,0,0,1-3.93,2.86c-.13.39-.35.84.62.58a16.76,16.76,0,0,1,3.1-2.7c-1,1.18-1.24,1.49-1.44,1.79a11.94,11.94,0,0,1-1.19,1.56c.34-.49,3.88-2.75,4-2.32-.55.31-3.41,2.33-3.84,2.49a37.85,37.85,0,0,1,3.92-1.47,18.88,18.88,0,0,0-3.9,2.54c.66-.48.27.61.74.59.22-.24.45-.49.66-.74,0,.28.33.29.86.19s1.22-.29,2-.49c1.46-.4,3-.75,3.15-.12-.86.16-4.94,1.75-5.22,2.38a56.46,56.46,0,0,1,5.94-1.41c2.45-.44,4.94-.59,5.92-.16l-1.08.58c.54.2,1.09.41,1.6.64-1.59.06-4.15.13-6.59.33s-4.78.48-6.08.64c-.79.67-1.3.58-1.05,1-1,.52-1.7.3-1.8.2l-.38,1.22a5.31,5.31,0,0,1,2.45-.28,4.42,4.42,0,0,0,2.13-.05,17.08,17.08,0,0,0-2.82-.61,16,16,0,0,1,4.32-.79c1.45-.06,2.56.24,2.46.84-.89.47-4.3.78-5.09,1,.84-.09,1.77.53,1.2.73l-1.37-.12c-.4.34.44.37,1.12.48s1.15.31,0,.8c-.13.26-3.06,1.06-1.61.91,2.74-.66,11.3-2,13.44-1.92-.09.06-.7.57-1.46,1.08a9.74,9.74,0,0,1-2.37,1.25,11.63,11.63,0,0,1-3.67.18,11.86,11.86,0,0,0-3.44.13,6.94,6.94,0,0,1,1.77.18c-.56.3-2.08.06-1.75.57,2.49-.06-.15,1.14,2.12.14.74.52-.48.61-.34,1.25,1.61-.27,5.48.52,6.17,1.2a8.51,8.51,0,0,0-1.83.16,4,4,0,0,1-.79,1.56,2.93,2.93,0,0,0-.73,1.47,4.7,4.7,0,0,1-2.42.22c.43.19,1.26.42,1.29.77-2.2.45-.27-.79-2.89-.53,1.45.17,1.9,1.06,2.73,1.66,2.23.11.59-1.12-.3-1.68a15.92,15.92,0,0,1,4.43,1,7.55,7.55,0,0,1,3,2c.63,1.16-2,.19-1.62.43-.38.93.86,1.53,1.92,2.1s1.9,1.08.66,1.71c-2,.29-3.84-.7-5.26-.81-.59-.94,1.44-1,1.46-1.6l-1,.53c-.6-.37-1-1-.38-1.18-.92.12-1.14.87-1.36,1.74a3.26,3.26,0,0,1-1.43,2.35,3.46,3.46,0,0,0,2,.95l-.17-.51c1.63-.07,1.95,1.34,2.79.93,1,.87,2.47,2,1.38,2.67l-2.22-.4c.64.15,1.44-.24.84-.65.87.62-3.27.55-.54,1.7l1.66-.21c.94.91,3,2.35,2.08,3,2.23.24-.19-.25,2.47-.12-3.23-.36.7-2.05-2.79-2.13,3.06.18,1.5-.69,4.18-.86-.72-.15-1.44,0-.91-.66a6.7,6.7,0,0,1-.6-.3l.07,0-.1,0c-.1-.06-.12-.06,0,0a3.25,3.25,0,0,1-1.18.08c-1.55-.73-1.28-1.79-2.05-2.34.43-.33.79.35,1.61.3l-1.17-.82c1.62.29,2.91-.54,3.64.63l.26-.87c1-.35,1.49-1,.89-1.61.43-.38-1.6-1.38-.4-.8-.26-.53-.5-1.05-.78-1.58l.41.05c.19-.7-.39-1.52-.63-2.3s-.18-1.55,1.36-2.27c-.38-.53-.84-1-.33-1.85l1.42-.1c-.48-.66,1.45-2,0-2.26a2.68,2.68,0,0,0,1.76-.85,1.49,1.49,0,0,0,.13-1.26c-.23-.91-.86-1.82-.56-2.46l-1.85.12c0-.84-.62-1.58-1.49-2.47l-1.61.3c-.72-.31-.5-.87-.21-1.56a3.18,3.18,0,0,0,.5-2.14c.62-.06.54.33.23.66.81-.61,1-1.12.86-1.55a2.61,2.61,0,0,0-1.16-1.08c-1.05-.62-2.13-1.08-1.16-2.28-.71-.15-.63-.48-.36-.89a.17.17,0,0,0,.12.06.33.33,0,0,0-.05-.16,10,10,0,0,0,.58-.86,3.86,3.86,0,0,0-.62.78,2.26,2.26,0,0,0-1.08-.85l1.51-.93s0,0-.09-.07c.39-.71-.89,0-2,.82a3.56,3.56,0,0,0-1.19,0c1.18-.8.82-1,.48-1.12s-.67-.34.52-1.31c-1.43.47-2.11-1.41-4.83.23.32-.24.41-.45.56-.28,0-.57,0-1.17-.93-1l1.64-1.53c-1,.33-2,.69-2.95,1.08a4.28,4.28,0,0,1,2.78-2.72,7.07,7.07,0,0,1-2.31.22,4.2,4.2,0,0,0-2.07.45l1-1c-.18-.14-.73,0-1.14.07s-.73.07-.44-.47a1.87,1.87,0,0,0-.17-1.76,4.7,4.7,0,0,0-.62-.76,10.06,10.06,0,0,0-.85-.67c-.62-.43-1.26-.93-1.87-1.45a5.15,5.15,0,0,1-1.5-2.06c-.66,2.06-.73,1.46-.84.78s-.31-1.54-1,0c.24-1,.08-1.66.83-2.31-.86.2-1.22-.38-1.63-.71s-.85-.39-1.71.81c.13-1,.71-1.33.75-1.95-.18.18-.69.71-.68.09s.44-.75.79-1.1c-1.56-.28-2.42,2.71-3.19,5.53-.31-1.47-.73-1.36-1.53.43,0-1-.25-2,.63-2.22a5.14,5.14,0,0,0-1.51-.73c-.65-.13-1.28.07-1.43,1.23-.08-.61-.61-.25-.75,0-1-.23-1.06-.42-2-.25l.25.4c-.48,2.8-.8.56-1.57.92l0-.29c-.88-1-1.08-.74-1.26-.53s-.34.37-1.29-.73l.21,1.74c0,1.89-.34,1.36-.89.56s-1.26-1.88-1.67-1.11l.47,1c-.19.65-.69-.55-1.29-2a12.39,12.39,0,0,0-1.6-3.25c-.18-.3.12-.55.27-.82-1.94-1.94.16,2.29-.87,3-.43-1.17-.29-3.15-1.12-3.21-.29-.45-.67.65-1.12,1.6s-1,1.76-1.78.75a3.19,3.19,0,0,1,.6,2.56c-.33.26-1.07-.47-1.74-.87s-1.25-.45-1.12,1.09a2.35,2.35,0,0,1-.37-.67,11.71,11.71,0,0,1-.81,1.47,3.26,3.26,0,0,0-.35,2c-1.32-2.72-2-1.71-2.42-.64s-.78,2.16-2-.37c-.53.34-1,.71-1.51,1.07l-.21-.53c-1.22.2-.95,1.59-.65,3-.41-.2-.5-.75-.62-1-2-.18-2.09.18-1.79,3.25l-1.09-1.46c.12.54-.76.28-1.73.23s-2,.15-2.06,1.49a2.13,2.13,0,0,1-.33-.76c-.15,1.39-1.77,1.12-3,1.21s-2,.62-.05,3.29c.05.68.13,1.36.21,2,.74-.35,1.17.22,1.59.92s.81,1.5,1.4,1.7c-.13.65-2.45-.42-2.17-1.16l.31.16c-1.09-1.33-1.64-1.22-2.14-1s-.87.63-1.7-.2a8.33,8.33,0,0,1-.84.84c-.29.27-.6.53-.91.77-.65.49-1.32,1-2,1.44a19.72,19.72,0,0,0-2,1.51,8.85,8.85,0,0,0-1.63,1.78l2.45,1.12-.68.8c-.68-.08-2-.74-1.49-1.35-1.53-.43.41,1.77.93,2.06a1.49,1.49,0,0,1-1.88-.68c-.43-.56-.68-1.2-.82-1l-.15.67.35,0c.7,1,1.69,1.57,1.15,2.32-.73.28-1.61-.47-1.8-.3-.17-.09-.29-.05-.23.3l-.81,1.18,2.16.36c.68,1-.59,1.11,1.82,1.5a2.48,2.48,0,0,0-3.07,1.87c-.2.59-.32,1.19-.46,1.66s-.28.81-.59.88a2.62,2.62,0,0,1,1,1.55,2.7,2.7,0,0,1-.23,1.37c.47-.18,2.83.13,2.4.86-2.38-.54-3-.25-3.42.24a2.85,2.85,0,0,1-2.47,1.34c1.21-.22,1.25.45,1.49,1.06s.61,1.16,2.29.75c-.43.7-1.84,0-3,.48.88.94.63,1.9.19,3a9,9,0,0,0-.55,1.69A2.68,2.68,0,0,0,194,252a5.21,5.21,0,0,1,2.58-.23c-1,.53-2,1.09-3,1.69.39.42,3.69-.29,1.69,1,.51-.23,1.27-.55,1.53-.32a4.91,4.91,0,0,0-.4,1.78,5.17,5.17,0,0,0,.29,1.66,7.21,7.21,0,0,0,.69,1.56l.87,1.48a10.88,10.88,0,0,1,1.48,3.11,9.7,9.7,0,0,1-.1,4.43c.59-1.3,1-1,1.28-.64.05-.44,1.26-1,1.91-1.55a28.81,28.81,0,0,0-.6,3c1-.67,1.37-.3,1.76,0s.74.65,1.6-.12l-.71-.11a10.42,10.42,0,0,0,3-3.34,20.84,20.84,0,0,1,3.25-3.91c-1.32.84-.75-.27-.26-1.19s.93-1.73-1.15-.81c.47-.57,1-.51,1.62-1.07-1.33.69-1.82.64-1.49-.17l.34-.15a1.63,1.63,0,0,1-.37-1.77c.08-.33.21-.68.32-1a8.42,8.42,0,0,0,.38-1.2l-1.57.73c.08-.4.57-.66.92-.94-2.62.52.21.92-2.62,1.64.77-.44,1.11-.8,1.23-1.11a1.52,1.52,0,0,0,0-.92,1,1,0,0,1,.13-.89,3.25,3.25,0,0,1,1.66-.92c-.09-.48-1.91.62-2,.11l1-.37-1.39.16c.13-.4,1.45-.82,2.35-1-.09.1.28.18.38.24,1.19-.63-.61-1.06-.23-1.27l-.58.56c-.64-.59-.57-1.4-.69-2.15a2.85,2.85,0,0,0-.3-1.15,3.21,3.21,0,0,0-1-1.14l-.82.07c-.73-.61-.5-.85-.14-1.06s.81-.41.53-1.07l.18.07c-.79-.35-1.11-.76-1-1.09.89.46,1.93-.24,2.9.34a4.31,4.31,0,0,0-1.44-1.12,17.07,17.07,0,0,1-2.47-1.16l1.36.13c-1.11-.58-1.75-.78-1.89-1.55.94.85,2.11.2,3.4,1.19,1.62-.17,1-.78.6-1.35s-.64-1,1.47-.47c-3.24-2-2.37.29-3-.32-1.27-.13-2.42-1.5-1.88-1.81.13-.21,1.3.06,2.49.29s2.39.43,2.58,0c-.06.08.19.21.13.29.51,0,.3-.26.16-.56s-.17-.56.62-.39c-1.85-1.33.41-.47-2.06-2l.09,1.22a22.32,22.32,0,0,0-1.44-1.84c-.48-.67-.62-1.26.35-1.26a7.69,7.69,0,0,1,1.21,1.42c.88.21-.19-.76.71-.54,1.19.81,1.17,1.14,1,1.48s-.34.71.49,1.49c1.18.38-1.29-2,1.27-.15-1.61-1.18-1.36-1.35-1-1.46s.81-.19-.23-1.33l1.41,1c-.17-.24-.71-.89-.55-1l1.64,1.58c-.64-.77-.14-.75.44-.65s1.22.29,1-.22c-.61.88-1.82-1.07-3.12-1.43-.51-1.29.56-.77,1.73-.13s2.45,1.4,2.62.6c.06.29-1.29-.1-1.7-.86a4.27,4.27,0,0,1,2,.62c.38-1-1.43-1.06-1.95-2.1,1.8,1.15-.29-1-.43-1.79l1.28,1.22c1.65-.08-2.42-2.82-.61-2.67.45.7.9,1.39,1.37,2.07l0-.85,1.31,1.53c-.59-1.49-.17-1.37.65-1.35-.94-.83-2.07-2.43-1.66-2.86,1,.54.93,1.41,1.37.7.56,1,1.33,2.13,0,1.12.35.46.59.95.94,1.39,1.09.66.9-.42,1.11-.6a.65.65,0,0,1-.49-.13c-.25-.86-.46-1.72-.66-2.6a3,3,0,0,1,1,1.41c.06-.29-.31-1-.14-1.36.8,1.19,1.71,2.36,1.78,3.16-.07-.62-.12-1.25-.15-1.88.43.46,1.43,1.07,1.63,1.58.48.19.32-.59.27-1.33s-.07-1.5.54-1.25a1.57,1.57,0,0,1-.16-.78c.82-.11,2.21,1.06,2-1,.56.67,1.12,1.34,1.66,2,.14-.42-.38-1-.88-1.75s-1-1.47-.71-2.18c.37-1.1,1.29,1.8,1.87,2.31-.26-1.32-.74-4,.81-2.43C229.26,222.62,228.94,222.35,228.81,222.61Zm7.43-3.72c-.08.4-.13,1.57-.48.58C235.49,217.47,235.85,218.38,236.24,218.89Zm12.83-4.1c-.28.53-.37.19-.44-.51C248.83,214.17,249,214.3,249.07,214.79Zm25.51,33.56-.08,0C275.26,247.94,275,248.07,274.58,248.35Zm-.95.87a1.21,1.21,0,0,0,.71.19c-.42-.15-.4-.38-.23-.62C273.65,248.78,273.31,248.84,273.63,249.22ZM198,230.55h.51C198.73,231.22,198.38,230.89,198,230.55Z"/><path class="cls-1" d="M247.11,216.82c0-.3.07-.63.12-1A1.71,1.71,0,0,0,247.11,216.82Z"/><path class="cls-1" d="M224.73,226h0a2.54,2.54,0,0,0,.16.28Z"/><path class="cls-1" d="M259.94,234a2.81,2.81,0,0,1,.9-.38C260.41,233.69,260.05,233.79,259.94,234Z"/><path class="cls-1" d="M275.29,255.23l-.28-.77c0,.34-.4.35-.71.43C274.7,255,275.31,255,275.29,255.23Z"/><path class="cls-1" d="M263.28,257.29c.18.15,0,.18.15.33l.78.24A.64.64,0,0,0,263.28,257.29Z"/><path class="cls-1" d="M269.49,254.27c-1.44-.35-1.07.15-.93.65,0,0,0-.06,0-.08C270.54,255.54,270,254.9,269.49,254.27Z"/><path class="cls-1" d="M268.58,255a.41.41,0,0,1-.07.39C269.29,255.7,268.72,255.31,268.58,255Z"/><path class="cls-1" d="M274.32,250.69c-.42.13,1.82.54,1.2.54C277.32,251.87,273.61,249.3,274.32,250.69Z"/><polygon class="cls-1" points="264.69 253.29 266.49 253.64 265.13 253.02 264.69 253.29"/><path class="cls-1" d="M266.82,250.44l-.66.53a.9.9,0,0,1,.56.32C266.88,250.91,267.35,250.55,266.82,250.44Z"/><path class="cls-1" d="M266.72,251.29a.44.44,0,0,0,.16.6A.87.87,0,0,0,266.72,251.29Z"/><polygon class="cls-1" points="264.39 252.27 264.81 252.18 265.06 251.77 264.39 252.27"/><path class="cls-1" d="M268.47,243.36l-.43-.8c-.61-.15-1,0-.8.3C267.65,243.09,267.86,243.39,268.47,243.36Z"/><path class="cls-1" d="M263.2,244.76a5.62,5.62,0,0,1,1.43-.08l-2.24-.38Z"/><path class="cls-1" d="M263,242.72c-.62-.15-1.68-1.17-1.64-.33C261.94,242.53,262.38,243.27,263,242.72Z"/><polygon class="cls-1" points="266.04 232.48 266.1 232.65 269.79 232.25 266.04 232.48"/><path class="cls-1" d="M255.61,227.4c-.62.83,2.13-.84,1.32.07.86-.22.66-.75,1.41-.93C257.35,226.58,257.76,226.21,255.61,227.4Z"/><path class="cls-1" d="M258.34,226.54a5.85,5.85,0,0,0,.59-.06A2.27,2.27,0,0,0,258.34,226.54Z"/><polygon class="cls-1" points="201.82 271.23 201.84 272.33 202.35 271.08 201.82 271.23"/><path class="cls-1" d="M204.76,270.23l-1.47,1.87c.59-.42,1.18-.85,1.75-1.29C204.86,270.78,204.49,270.71,204.76,270.23Z"/><path class="cls-1" d="M238.27,223.35l-.07-.57c-.17-.59-.26-.64-.46-.69C237.92,222.5,238.1,222.93,238.27,223.35Z"/><polygon class="cls-1" points="232.62 223.03 232.73 223.04 231.83 221.09 232.62 223.03"/><path class="cls-1" d="M229.55,227.39c.2,0,.18-.53.4-.54C229.76,227.38,228.26,225,229.55,227.39Z"/><path class="cls-1" d="M414.91,21.25c.13-1.23-1.4-.77-1.68-.95C413.59,22.35,415.31,21.2,414.91,21.25Z"/><polygon class="cls-1" points="418.56 41.48 417.94 41.13 419.49 44.11 418.56 41.48"/><path class="cls-1" d="M418.7,60.43c2.59-1.81-.48-6.86.42-10.24l.59-.56-2.11-1.51C418,52.22,419.4,57.54,418.7,60.43Z"/><path class="cls-1" d="M413.15,70.59c1-.64.89,2.17.3-2.36a4,4,0,0,1-.26.43A17.32,17.32,0,0,1,413.15,70.59Z"/><path class="cls-1" d="M413.19,68.66c-.09-2-.84,1.31,0,0Z"/><path class="cls-1" d="M413.85,77.87l-.93-2.62c-.59.55-.7,2.89-1.15,2C412.29,80,412.88,79.41,413.85,77.87Z"/><path class="cls-1" d="M415.78,80.34l-.4-1.36C415.13,79.22,415.05,79.59,415.78,80.34Z"/><path class="cls-1" d="M414.55,76.1l.83,2.88c.42-.38,1.27-.43-.3-1.32C415.85,77.89,415.11,77.32,414.55,76.1Z"/><path class="cls-1" d="M414.93,74.46c.56-1.48.9-3.38,1.82-.75C416.35,68.68,414.52,69.44,414.93,74.46Z"/><path class="cls-1" d="M421.4,61.38l.75-2-.89-1.7C421.7,58.55,420.59,61.51,421.4,61.38Z"/><path class="cls-1" d="M412.65,94.25c.55.16,1.47-.89,2.17-1.1l-.65-1.93C413.8,92.22,413.47,94.11,412.65,94.25Z"/><path class="cls-1" d="M414.82,93.15l1,2.9C415.89,93.45,415.43,93,414.82,93.15Z"/><polygon class="cls-1" points="418.68 80.78 416.63 76.03 418.71 81.7 418.68 80.78"/><polygon class="cls-1" points="412.67 105.35 411.37 103.71 413.34 106.63 412.67 105.35"/><path class="cls-1" d="M413,112.7c-1.07-1.21-1.78,1.69-2.45.41a14,14,0,0,0,2,5.22A8.6,8.6,0,0,1,413,112.7Z"/><path class="cls-1" d="M413.7,120.9a16.78,16.78,0,0,0-1.22-2.57A8.13,8.13,0,0,0,413.7,120.9Z"/><path class="cls-1" d="M415.57,101a3.19,3.19,0,0,0-1.56,2.3l1.55-1.16Z"/><path class="cls-1" d="M415.61,102.1l-.05,0c0,1.24-.06,2.11-.07,2.47C415.51,104.3,415.54,103.54,415.61,102.1Z"/><path class="cls-1" d="M415.57,100.71V101C415.72,100.89,415.77,100.82,415.57,100.71Z"/><path class="cls-1" d="M417.33,88.41c.89,1.7,1.85,5.25,3.15,1.8C419.41,89,418.66,91,417.33,88.41Z"/><path class="cls-1" d="M417.51,99.28l.33-3.09c-.41.06-1,.62-1.44-.22Z"/><polygon class="cls-1" points="418.02 100.78 417.51 99.28 417.39 100.42 418.02 100.78"/><path class="cls-1" d="M415.11,115.61A11.19,11.19,0,0,1,416,120a31.2,31.2,0,0,0,.42-5.33C415.93,114.47,415,113.72,415.11,115.61Z"/><path class="cls-1" d="M415.49,109c0,.1.06.21.09.3C415.71,109.16,415.75,109,415.49,109Z"/><path class="cls-1" d="M416.13,136.25c.08-.09.19-.17.28-.26l-.27-.06Z"/><path class="cls-1" d="M416.71,114.41a3.38,3.38,0,0,0-.59-2.87,20.81,20.81,0,0,1,.3,3.17C416.64,114.82,416.79,114.84,416.71,114.41Z"/><path class="cls-1" d="M414.47,125.42a18.12,18.12,0,0,0,.84-2.3C414.82,123.8,414.06,125.18,414.47,125.42Z"/><path class="cls-1" d="M415.15,109.79c0-.07,0-.13-.07-.2C414.75,110,414.91,110,415.15,109.79Z"/><path class="cls-1" d="M415.15,109.79a7.75,7.75,0,0,0,1,1.75,11.8,11.8,0,0,0-.54-2.2A2,2,0,0,1,415.15,109.79Z"/><path class="cls-1" d="M426.19,141.08c-1.45-.23-2.82-3.7-1.29-6.73-1.11-2.95-5.85-1-8.49,1.64.63.08,1.21.08,2.09,3.12.79-1.07,1.79-6.78,3.12-4.22.79,4-.48,3.31-1.23,5.28,1.79-1.68,2.67,5.12,5.31,4.22l-1-3.54C425.15,140.78,425.82,142.06,426.19,141.08Z"/><path class="cls-1" d="M416.51,130.18l-.19-1.26a12.19,12.19,0,0,1-1.93,4.36c.73,2.08,1.27,2.51,1.75,2.65l.15-6.18Z"/><path class="cls-1" d="M416.26,123.29c1.58,1,2.28,4,4,2.11-.14-3.68-1.34-2.57-2-4.76.44,5.94-.89-1.7-1.75,2.6A18.81,18.81,0,0,1,416,120a28.34,28.34,0,0,1-.69,3.08.85.85,0,0,1,.09-.14v0h0c.2-.26.31-.35.2-.06a.4.4,0,0,1,0,.13,1.57,1.57,0,0,1,.59.26c-.31,1.72-.4.27-.59-.26a1,1,0,0,0-.24-.07l0,0,.92,5.94A25.79,25.79,0,0,0,416.26,123.29Z"/><path class="cls-1" d="M423.9,93.35a.44.44,0,0,1-.37.2C423.73,93.93,423.86,94.07,423.9,93.35Z"/><path class="cls-1" d="M423,95.81a2.63,2.63,0,0,1-.71-2.19c.46-1.23.76,0,1.27-.07-.42-.85-1.15-3-1.89-.3l.21.42c-.52,2.4-2.45,5.5-2.67,5.08A10.58,10.58,0,0,0,423,95.81Z"/><path class="cls-1" d="M420,109.72l.81,5,1.34-2.54-.81.14C421.65,109.44,420.65,110.06,420,109.72Z"/><polygon class="cls-1" points="415.35 136.82 413.68 136.18 416.05 139.02 415.35 136.82"/><polygon class="cls-1" points="415.61 143.26 414.16 143.04 415.04 144.73 415.61 143.26"/><path class="cls-1" d="M350.93,220c.35,0,.7,0,1,0A3.62,3.62,0,0,0,350.93,220Z"/><path class="cls-1" d="M345.37,216.06l-.63.36C345.23,216.39,345.54,216.26,345.37,216.06Z"/><path class="cls-1" d="M479.76,189.19c.33-.68.66-1.39,1-2.05s.56-1.35.75-1.91c.38-1.13.35-1.85-.42-1.56-.48.36-.94.71-1.44,1.05a10.86,10.86,0,0,1,.38,2.47A8.68,8.68,0,0,1,479.76,189.19Z"/><path class="cls-1" d="M382.32,160.18l.76.22.79-1.92Z"/><path class="cls-1" d="M383.47,166.76l-2.79.15A10.16,10.16,0,0,0,383.47,166.76Z"/><path class="cls-1" d="M392.1,202.87c0-.74-.08-1.47-.14-2.2C390.42,202.31,391.66,202.17,392.1,202.87Z"/><path class="cls-1" d="M416.76,209.23a21.22,21.22,0,0,0-.66,2.49c-.07.38-.13.74-.17,1.08l-.05.51,0,.57a12.59,12.59,0,0,1,.7-1.65,13.86,13.86,0,0,0,.58-1.33C417.42,210.1,417.42,209.51,416.76,209.23Z"/><path class="cls-1" d="M339.58,233c1.14.4,1.74.32,1.88,0C340.3,232.65,339.59,232.5,339.58,233Z"/><path class="cls-1" d="M416.25,220.09c.11-.4.15-.79.24-1.2a16.85,16.85,0,0,1-.64-5A6.84,6.84,0,0,0,416.25,220.09Z"/><path class="cls-1" d="M315,155.05a4.23,4.23,0,0,1-.4.24C314.7,155.44,314.82,155.3,315,155.05Z"/><path class="cls-1" d="M290.72,209.74a27.18,27.18,0,0,1-.76-2.65A8.42,8.42,0,0,0,290.72,209.74Z"/><path class="cls-1" d="M415.14,169.19c-.12-1.37-.18-.22,0,0Z"/><path class="cls-1" d="M421.35,162.49a1,1,0,0,0,.77.54A1.27,1.27,0,0,1,421.35,162.49Z"/><path class="cls-1" d="M430.67,231.33l.08.08C430.68,230.87,430.69,231,430.67,231.33Z"/><path class="cls-1" d="M415.84,167.12a9.31,9.31,0,0,0-.45,1.75A10.45,10.45,0,0,0,415.84,167.12Z"/><path class="cls-1" d="M415.09,167.41c.07-.48.11-.85.15-1.2C415,166,414.81,166.2,415.09,167.41Z"/><path class="cls-1" d="M415.24,171.09a11.45,11.45,0,0,1,.15-2.22c-.11.27-.2.39-.25.32C415.17,169.59,415.2,170.15,415.24,171.09Z"/><path class="cls-1" d="M399.68,127.56a2,2,0,0,1-.1-.29C398.21,126.92,398.68,127.21,399.68,127.56Z"/><path class="cls-1" d="M449.09,167.07c.06,0,.11,0,.16,0l-.12-.13Z"/><path class="cls-1" d="M444.91,166.27a4,4,0,0,1,2.66-.45,3.6,3.6,0,0,1,1.56,1.12c.35-1.54.67-3.11.93-4.7A57.23,57.23,0,0,0,444.91,166.27Z"/><path class="cls-1" d="M369.22,218.85c-1.06-.14-2.1-.31-3.09-.52a29.6,29.6,0,0,1,2.94-3c.53-.58.35-.8-1.15-1.33.7,2.4-1.81,3.44-4.2,4s-4.62.86-4.76,3.32l-.84-.51-.79-.55c.45.06.53-.22,1-.17-.76-.62-1.25-.68-1.67-.52a3.83,3.83,0,0,0-1.18,1.15,5,5,0,0,1-1.5,1.35,2.41,2.41,0,0,1-1,.26,3.3,3.3,0,0,1-1.28-.35c-1.26-.85-1.78-1.93-.72-2.08-.52,0-1.08,0-1.61-.09l-.83-.09-.82-.15c-.72-.57,0-1.15.64-.62a16.33,16.33,0,0,1-3.69-2.54l.12-.07a6.85,6.85,0,0,1-1.9-.2,9.92,9.92,0,0,1-1-.28c-.29-.11-.56-.22-.77-.32,0-1.38.77.24,1.13-.35a10.13,10.13,0,0,1-1.14-.8l-.56-.44-.5-.48c.41-.72,1.13-.64,1.73-.31a3.83,3.83,0,0,1,1.57,1.64,6.21,6.21,0,0,0,1.11-2c0-.32-.32-.43-.66-.61a4.79,4.79,0,0,1-.61-.34,1.94,1.94,0,0,1-.46-.58,1.53,1.53,0,0,1-.09-.92,2.06,2.06,0,0,1,.2-.59,2.73,2.73,0,0,1,.42-.68,5.85,5.85,0,0,0,.77,1.52,4.63,4.63,0,0,0,2-1.62,4.24,4.24,0,0,1,1.66-1.78,20.39,20.39,0,0,0-3,1.18A6.2,6.2,0,0,1,343,209a1.11,1.11,0,0,1-1.23-.75c.44-.67.68-1.41.18-3.16,1.71.49,1.63-.93,2.46-2.81l2,1.15a5.92,5.92,0,0,0,0-1.32,4.77,4.77,0,0,0-.28-1,5.79,5.79,0,0,1-.65-2,3.48,3.48,0,0,1,2.59-1.54,7.59,7.59,0,0,1,2.52.39c1.5-1.61.49-1.47-.61-1.44-.56,0-1.08,0-1.31-.31s-.12-.89.67-2a13.44,13.44,0,0,0,2-1.9c.28-.33.53-.69.78-1s.52-.69.77-1.06c.48-.74.94-1.54,1.41-2.45l.72-1.43.89-1.5c2.58-1.3.63,1.36,1.82,1.17.16-1,.33-2,.51-3,.47-.38.71.18.83.46a1.87,1.87,0,0,0-.06-2c-.22-.55-.32-1.19.77-2.49-.24-.64.13-1.05.83-1.38a13.92,13.92,0,0,1,2.85-.83,12.61,12.61,0,0,0,3.31-1.09,5.5,5.5,0,0,0,1.35-1,4.13,4.13,0,0,0,1-1.43c1.21,0,.36,1.47,1.11,2.07l2.1-2.56c.52-.64.91-1.1,1.28-1.53a43,43,0,0,0,2.8-4c.7-.1,1.41-.14,2.13-.18l2.12-.13c-1.68-.2-1.92-1.14-1.41-2.42a11,11,0,0,1,1.24-2.11c.26-.37.55-.76.86-1.14l.95-1.06c-.66-.2-1.29-.4-1.83-.53a11.09,11.09,0,0,0-1.37-.24l1.15-.86,1.19-.79,2.4-1.59c.78.12.51,1.08,0,2.31.28-.31.55-.62.75-.89,2.16.11,1.62,1.76.79,3.47-.77-.2-1.55-.43-2.33-.66a11.73,11.73,0,0,0-.81,2.67,3.17,3.17,0,0,0,.34,2.2,3.62,3.62,0,0,1,1.35-1.21c-.17.47-.24.87,0,1s.57-.51,1.15-1.37c.69.67,1.36,1.35,2,2l-.09-1.07,1.7-.22c.57-.06,1.16-.08,1.73-.12l3.41-.21c.94-1,1.89-1.93,2.86-3s2-2.06,3.18-3a22.33,22.33,0,0,1,9.23-4.59c-1.8,2.11-.1,3.15,0,5.41a2.48,2.48,0,0,0-2-.65,6.2,6.2,0,0,0-2.31.72c-.82.4-1.67.86-2.57,1.23a11.26,11.26,0,0,1-1.38.48q-.36.09-.72.15a5.86,5.86,0,0,1-.73.13c1-.14,1.5.17,1.64.48a.92.92,0,0,1-.24,1l3.24-1.67,1.64-.84c.56-.27,1.12-.5,1.69-.75.07,1.86,1.65,1.22,3.52,1.79-1.72-3.58,5.05-2.83,8-3.86.16,1.26-.53,2.37-4,2.26a2.54,2.54,0,0,0,2.46.42,6.39,6.39,0,0,0,1.94-1.31c1.24-1.08,2.58-2.25,4.44-1-.87,0-1.33-.2-1.7.41a4.22,4.22,0,0,1,1.95-.4,9.46,9.46,0,0,1,2.16.3c1.32.34,2.19.91,1.56,1.39l-.85-.06c2.83.39,7,1.12,10.62,1.6s6.75.78,7.75-.51a25.08,25.08,0,0,1-2.56,3.71,45.53,45.53,0,0,1,14-4.66c-1.16.86-1.78,3.12-2.83,5s-2.42,3.27-4.58,2.84a8.25,8.25,0,0,0,1.56,1.47,9,9,0,0,0,2.77,1.36,4.42,4.42,0,0,1,.34-2.41c.33-.92.86-1.7,1.43-1.43.22,1.13.34,1.83.47,2.35a7.8,7.8,0,0,0,.33,1.21c.12.35.27.69.44,1.22a18.07,18.07,0,0,1,.48,2.37c-.18-.61.69-1.41,1.82-1.83s2.48-.35,3.1.54c-.69.13-3.17,2.62-3.95,2.37a24.91,24.91,0,0,1,6.09,1.83c-1.26-.8-3.13,1.54-3.72,2.88.27-.39.65.5,1,1.61a19.59,19.59,0,0,0,1,3c.13-.69.25-1.41.35-2.14a5.31,5.31,0,0,0,.58,1.66,5,5,0,0,0,.87,1.24,16.12,16.12,0,0,0,2.37,1.89,9.38,9.38,0,0,1,2.3,2.2,6.05,6.05,0,0,1,.74,1.6,7.3,7.3,0,0,1,.19,2.11,5.1,5.1,0,0,0-3-.87,2.62,2.62,0,0,0-2.81,1.84,27.26,27.26,0,0,1,2.35,1.76c.49.41,1,.88,1.57,1.42s1.05,1.12,1.58,1.76c2.06,2.55,3.7,6.08,3.4,9.37l-1.54.72c-.14,1.65-.35,3.31-.64,5-.76-2.06-1.89-5.62-3.33-9a86.18,86.18,0,0,0-4.18-8.34c-1.28,1.87-1.43.33-2,3.3-.69.38-1-.13-1.13-.81a7.73,7.73,0,0,1-.11-2,38.46,38.46,0,0,1-2.43,6.23,1.55,1.55,0,0,1,1.13,1.15,8.27,8.27,0,0,1,.18,2.07,12,12,0,0,0,0,2.08,1.27,1.27,0,0,0,.73,1.23,39.42,39.42,0,0,0,.59-8.24,3.16,3.16,0,0,1,1.83,1.24,7.33,7.33,0,0,1,1.39,2.84,9.71,9.71,0,0,1-1.23,7.78c-.79.4-1.59-.4-2.31-1.3a9.62,9.62,0,0,0-1.77-2,5.16,5.16,0,0,1-.51,2.94c-.45,1.17-1.13,2.19-1.51,2.21.07-.86.14-1.71.14-2.57a3.35,3.35,0,0,0-1,1.71c-.16.65-.24,1.34-.38,2a4.49,4.49,0,0,1-.76,2A3.35,3.35,0,0,1,452,219a6.2,6.2,0,0,1-2.6.56c-1,.07-1.65.18-1.25.79,3.2.9,9.78,6.57,10,9.29l-1.48.63c-.79.32-1.83.69-2.91,1a16.68,16.68,0,0,1-5.62.88,1.58,1.58,0,0,1-1.3-1.29,7.85,7.85,0,0,1-.12-2.15c0-1.56,0-3-1.22-3.33.33.59-.19,1.92-.43,2.36-.58,0-.72-.5-1-.84s-.48-.53-1.21,0a1.35,1.35,0,0,1-1.26,1.74c-.29.06-.47.06-.38.15a4.08,4.08,0,0,0,1.41.54,2.56,2.56,0,0,1-2.21.71,16.46,16.46,0,0,0-2.49-.31,2.31,2.31,0,0,1-.42,1.65,5.42,5.42,0,0,1-1.82,1.77,5.55,5.55,0,0,1-5.51.2c.51-.39.44-1.54.47-2.09a11.93,11.93,0,0,1-2.08-3.72c-.22-.61-.36-1.22-.51-1.8s-.23-1.16-.3-1.73c-.28-2.2-.36-4.53-.56-7.4.54-.59,1.19-3.35,2.29-2.21-.22-.4-.55-.78-.84-1.29a4.8,4.8,0,0,1-.55-2.11c2.13-3.58.38,4.11,2.94,1.37-1.45-.22-2-4.75-3-7.37-2.22.82-.38,6.1.56,8.66-3.09.1-6.35-4.49-7.83-10.71-.81-5,2-2.17,1.52-3,.46-9.33-5.45-7.89-3.29-15.65,1.94-3.09,3.9-.18,5.31-.87.78,4-1.19,6.22-1.09,9l.9-3.38c.67,1.28,1.19,4,.63,5.45,1.74-2.59.2-15.76,1.77-23-.67-1.27-1.37-3.47-2.15-2.42l.29,2.27c-1.56,2.11-2.22-4.26-2.94-1.38-1.14-3-2.92-6.45-2.06-10.75l2.23-.83c-.65.1-1.31,2.82-.61,4-1-1.78,3-6.61,0-8.55l-1.52,3c-1.16-3.06-3.57-6.83-2.89-10.64-2.2,1.75.26.87-2.31,3.6,3.2-2.37-.05,9.75,3.3,6-3,2.8-1.23,4.82-3.76,8.47.74-.12,1.4-1.3,1.07,1.9a3.36,3.36,0,0,1,.65.7,1.29,1.29,0,0,1-.05.21l.09-.17c.11.13.13.15,0-.07a3.6,3.6,0,0,1,1.11-1.64c1.71,1.57,1.7,6.66,2.59,8.37-.34,1.9-.86-.79-1.64.26l1.34,2.55c-1.64.27-2.68,5.07-3.68.61l0,4c-.9,2.38-1.24,5.64-.53,7.64-.34,1.9,1.86,4.78.56,3.13l1.07,6.3-.41.07c-.08,3.11.63,6.31,1,9.62a27.45,27.45,0,0,1,.14,5.06c0,.4-.07.92-.13,1.4s-.13,1-.2,1.49c-.17,1-.37,2.05-.65,3.13l.53,1.89c.18.65.39,1.34.56,2.07.1.38.2.77.3,1.18s.22,1,.37,1.59l.44,1.79c.14.63.36,1.27.54,2-.3.54-.61,1.12-.87,1.7.61,1,1.11,2.3,1.87,3.63.18.33.35.68.55,1l.62,1,.65,1c.24.32.49.62.73.92l.73.89a8,8,0,0,0,.77.77,11.71,11.71,0,0,0,1.51,1.26,3.91,3.91,0,0,0,2.47.9,5,5,0,0,0,.65,1,4.29,4.29,0,0,0,1,1,13.94,13.94,0,0,0,1.36.86l.38.2c.07,0,.14,0,.2.13l.2.09.87.33a16.77,16.77,0,0,0,8.56.52,29.16,29.16,0,0,0,8.87-3.27c.66-.36,1.31-.74,1.92-1.11s1.24-.75,1.57-1c.81-.5,1.51-1,2.19-1.31l-.86-1.65a30.5,30.5,0,0,0,8.64-9.06l-1.4-.9c.88-1.9,2.69-3.63,4.72-5.67a27.26,27.26,0,0,0,5.54-7.35c.36.67-.52,2.06-1.44,2.85,3.51-2.41,4.7-6.6,5.18-10.61.23-2,.35-4,.58-5.9a23.88,23.88,0,0,1,.52-2.75,12.7,12.7,0,0,1,.43-1.32,11,11,0,0,1,.55-1.28,8,8,0,0,1-.16-2.37,8.13,8.13,0,0,1,.47-1.93,1.23,1.23,0,0,0,.08.44c0-.18,0-.45,0-.73a22.91,22.91,0,0,0,.84-2.54,15,15,0,0,0-.85,2.14,14.58,14.58,0,0,0-.23-2.52q-.1-.72-.27-1.47c-.12-.51-.27-1-.43-1.51l1.65-1.11a4.21,4.21,0,0,0-.12-.48c.29-2.21-1.1-1.5-2.22-.23a9,9,0,0,0-1.55-2.44,2,2,0,0,0,.71-1.77,7.28,7.28,0,0,0-.71-1.92,8.73,8.73,0,0,1-.8-2,3.26,3.26,0,0,1,.37-2.26c-1-.37-2.3-2.67-4.12-4.56l-.66-.7q-.36-.33-.72-.63a11.67,11.67,0,0,0-1.41-1,3.13,3.13,0,0,0-2.61-.38c.27-.32,0-.88.73-.1-1.08-1.89-2.45-3.69-4.46-4.3.27-.77.52-1.54.75-2.3-1-.13-1.89-.24-2.81-.31s-1.85-.08-2.74-.1c-1.55-2.6-2.3-4,1.1-3.89-1.85-.41-3.11-.61-4.05-.84s-1.59-.37-2.2-.54a10.14,10.14,0,0,0-2-.38,18.39,18.39,0,0,0-3.39,0l.76-1.26a6.33,6.33,0,0,0-1.68-.28L443.9,152c-1.23-.05-2.31-.14-2.72-.89-1.74-1.9-7.16-3.38-13.42-3.94l-2.39-.25-1.21-.13-1.23-.06c-1.64-.08-3.3-.18-4.94-.31s-3.26-.1-4.84-.24c-.79-.06-1.57-.13-2.33-.22s-1.5-.11-2.22-.19c1.29,2-.05,1.67-1.74,1.25a9.61,9.61,0,0,0-2.53-.4c-.73,0-1.23.39-1.22,1.22-.79-.89-2.46-1.17-.77-2.35-2.8,1-5,.91-7,1.26a10.87,10.87,0,0,0-2.76.71,6.16,6.16,0,0,0-2.47,1.91c-.91-.78.8-1.79.07-2.19-.4.35-1.54,1.39-2.3,1s.58-1.06,1.37-1.76c-2.89,1-4.24,2.26-4.77,3.64a7.89,7.89,0,0,0,0,4.36,6.62,6.62,0,0,0-3.62.45,4.74,4.74,0,0,0-2.11,2.57c-1.28-.46-3.27-.65-.1-2.47-.95.37-3.95,1.31-6.58,2.52s-4.8,2.82-4.31,3.88c-.87-.25-2.51,1.32-2.82,1.81a43.57,43.57,0,0,0-7.86,5.13l1.23-.41a2.63,2.63,0,0,1-1.51,2.86,16.06,16.06,0,0,0-3.59,2.35l-.11-.28a15.22,15.22,0,0,0-3.59,2.18,4.92,4.92,0,0,0-1.13,1.3c-.49.77-1.05,1.36-4.64,3.57l1.58.88a1.37,1.37,0,0,1-.1,1.95,5.12,5.12,0,0,1-1.07.79c-.21.13-.45.26-.7.4l-.74.44a27.94,27.94,0,0,0-3.26,2.06,9.81,9.81,0,0,0-1.41,1.31,5.27,5.27,0,0,0-.92,1.63c.6-.28,1.21-.53,1.81-.78-.25,1.41-2.31,2.07-4.6,2.85s-4.8,1.73-5.7,3c-.59.46,0-1.19.24-2.11a13.88,13.88,0,0,0-1.58,1.87,3.58,3.58,0,0,0-.59,1.2c-.14.59.18.8.6,1,.86.37,2,.61,1.27,3.49-.76.33-1.4-.26-2-.47a.93.93,0,0,0-1,.19,4.2,4.2,0,0,0-1,2c-.77,1-.61,4.63.35,8.58.28,1,.51,2,.86,3l.47,1.49.51,1.43c.3,1,.64,1.85.89,2.74a18.12,18.12,0,0,1,.56,2.58c.21-1.73.56-3.17,2.5-.87a33.13,33.13,0,0,1,1.75,3.4c.29.66.63,1.31,1,2,.18.33.36.67.55,1l.63.94c1.7,2.49,4.08,4.45,6.52,4.13.33.5.4.81.3,1a40.88,40.88,0,0,0,6.7,1.63c.62.07,1.23.15,1.82.16s1.15,0,1.66,0A5.19,5.19,0,0,0,354,234c.49,1.58,2.05,2.32,4,2.45a18.05,18.05,0,0,0,6.33-1.12c4.16-1.41,7.38-3.39,8.22-.72a65.66,65.66,0,0,0,8.21-3.53l0,.61a13.56,13.56,0,0,0,5.24-3.27,9.33,9.33,0,0,0,1.23-1.61,16.06,16.06,0,0,0,.77-1.64c1.27-.35.77.59.83.89a24,24,0,0,0,7.2-4.28,14.51,14.51,0,0,0,2-2.61c.32-.52.65-1.09,1-1.72s.67-1.39,1.05-2.21l1.74.86c.15-.51.9-1.1,2-1.88s2.42-1.78,3.91-2.94c.72-.61,1.45-1.27,2.19-2a21,21,0,0,0,2.13-2.28,17.42,17.42,0,0,0,3.13-5.46,1.43,1.43,0,0,1,.19,1.2,17.42,17.42,0,0,1,1.59-3.21c.65-1,1.29-2.13,2-3.16.36-.53.74-1,1.13-1.56s.72-1.07,1.08-1.59c.72-1.06,1.45-2.1,2.1-3.15s1.16-2.11,1.61-3.12c.22-.5.42-1,.59-1.48a11.79,11.79,0,0,0,.31-1.45,4.87,4.87,0,0,0-1.45-4.71l-.14-3.1a28.52,28.52,0,0,0-.26-3.05c-.1.46-.19.87-.29,1.21s-.24.61-.35.84a1.8,1.8,0,0,1-.6.83c-.36.22-.67-.13-1-.61-.59-1-1.16-2.39-2-1.06a9,9,0,0,1,.52-2.2,7.69,7.69,0,0,1,1-1.88c.72-1,1.44-1.17,1.36.62l-.4.51c.8.45,1.36.11,1.78-.66a6.91,6.91,0,0,0,.54-1.43c.11-.56.2-1.17.28-1.8.14-1.25.28-2.54.48-3.51s.46-1.65,1-1.61a72.79,72.79,0,0,0-4.18-22.53,55.8,55.8,0,0,0-11.5-19.26c-.25,1-.52,2-.8,3-.56-.62-1.09-1.25-1.66-1.86s-1.14-1.21-1.73-1.8c-.28-.67-.26-1.36.15-1.56s1.27.07,2.54,1.41a2.52,2.52,0,0,0-1-1.56,6.57,6.57,0,0,0-1.91-1,5.2,5.2,0,0,0-3-.24c-2.45-2.58-1.51-2.79,0-2.52s3.34,1.19,2.49.43c-.83-.61-1.7-1.18-2.57-1.74l.38.67c-1.33-.32-2.19-.24-3.18-.41a6.87,6.87,0,0,1-1.64-.51,15.61,15.61,0,0,1-2.3-1.24c-2.2-1.8-.49-2.14-1.44-2.76.1-.16-.22-.41-1.54-.82-1-.54-2-1-3.05-1.43s-2.1-.86-3.17-1.23c.66.93,1.26,1.92,1.83,2.86a10,10,0,0,1-2.14-.27c-.66-.12-1.22-.26-1.61-.3-.81-.09-.91.21.14,1.76-.74-1.19-2.57-2.29-5-3a25.11,25.11,0,0,0-4-.86,36.48,36.48,0,0,0-4.33-.26,54,54,0,0,0-7.95.63c-1.11.18-2.09.34-2.88.42a6.39,6.39,0,0,1-1.72.08c-3.48,2.37-7,3.43-11.37,5,1.24,0,2.7,1.91-.95,3.15-.33-2.52-2.21-2.3-4.54-1.55s-5,2-7.32,1.33c1.84.28-.57,1.82-2.64,3.45s-3.79,3.3-1,3.44c-2.9,1.49-1.18-1.42-3.89-1-2.68,3-6.28,5.38-10.07,8S310,134.29,307,138.3c.39.53,2.21-.06,1.55,2.14-1.92.63-3.87,1.3-5.79,2.1-.48.89,0,1.81.11,2.7s-.15,1.72-2.06,2.63c.73-.14,1.82-.31,1.28.9-.41.45-.82.91-1.22,1.38s-.75,1-1.13,1.45c-.75,1-1.42,2-2.07,3.07s-1.21,2.18-1.79,3.28l-.83,1.69-.7,1.74-.68,1.76-.33.88-.28.9c-.36,1.2-.72,2.41-1,3.62l-.81,3.68c-.15.61-.25,1.23-.34,1.85l-.29,1.85c-.72,5-1.14,9.94-1.37,14.94s-.44,10-.85,15.38c.33-1.49.65-1.77.9-1.44a2.88,2.88,0,0,1,.35.9c.14.4.27.89.4,1.39,0-1.38,1.56-.31,2.35-.76-.06,1.41-.19,2.85-.17,4.29s0,2.9.08,4.37c1.43.32,2.2,2.4,3.06,4.38s1.75,3.85,3,3.69c-.56-.69-1-1.45-1.49-2.17,1.95,1,2.81-.79,3.68-2.78s1.85-4.27,3.55-4.67a3.05,3.05,0,0,1-1.63-2.52,21.77,21.77,0,0,1,.16-3.71,12.1,12.1,0,0,0,.05-4,6.09,6.09,0,0,0-2.11-3.77c.27-.65.58-.43.92-.15s.72.62,1.06.24a3.76,3.76,0,0,1-1.67-2.22,7.84,7.84,0,0,1-.09-3.74l.39.33a30.3,30.3,0,0,1,.7-10.61c.21-.78.44-1.57.67-2.39.11-.4.23-.81.35-1.23l.44-1.27c.32-.87.6-1.79.95-2.75s.78-2,1.19-3.09l-1.84.22a5.33,5.33,0,0,1,1.11-1.91c.36-.39.69-.65,1-1-.88-1.54-1.35-.18-1.88,1.22a7.22,7.22,0,0,1-.81,1.77c-.31.36-.71.38-1.28-.35a3.8,3.8,0,0,0,1.36-1.13,8.39,8.39,0,0,0,1.15-1.81c.64-1.41,1.39-3,2.05-4.68.35-.81.78-1.57,1.17-2.3a11.06,11.06,0,0,1,1.28-2,5.82,5.82,0,0,1,1.43-1.29,2.59,2.59,0,0,1,1.58-.37c.8-1.32.26-1.39-.28-1.46s-1.12-.13-.25-1.47l1.37-.12-.72-1.45c1.4-1.62,3.1-1.67,3.89-1.18-.4.33-.61,1.3-.85,1.77a10.38,10.38,0,0,0,3.14-3.67c.86-1.42,1.58-2.72,2-2.93-.84.61-1.67,1.23-2.47,1.88,2.32-3.68,5.82-7.13,9.45-10.38s7.43-6.33,10.47-9.67l-1-.31c2.39-2.5,3.69-3,5.07-3.46a20.84,20.84,0,0,0,5.94-2.78l-.15.29a7.69,7.69,0,0,1,1.85-1.89,9.47,9.47,0,0,1,2.55-1.37c-.66.79.32.89,1.22,1s1.7.37.83,1.28c2.9-2,3.65-2.49,4-3.15a11.31,11.31,0,0,1,2.33-3.46l1.37,1.08c1.28-1.53,1.29-2.26,4.88-3.11-1.42.76-.75,1.19-.17,1.69s1.1,1-.35,2a13.22,13.22,0,0,0,2.56.44,8.54,8.54,0,0,0,2.15,0,27.08,27.08,0,0,0,3.57-.63,6.46,6.46,0,0,1,2.89-.17,3.12,3.12,0,0,1,2.11,2c.93-.74,1.12-1.32.81-1.78a3.21,3.21,0,0,0-1.9-1c-1.67-.43-3.61-.34-2.65-.67-.74-.64,0-1.35,1.26-1.68a6.78,6.78,0,0,1,2.15-.27,5.38,5.38,0,0,1,2,.36c1.2.3,1.91,1.76,2.89,3.29a10.77,10.77,0,0,0,4.66,4.45c-.48-.27-.64,0-1.12-.27a5.07,5.07,0,0,0,2.79,1.35,6.8,6.8,0,0,1,1.54.69,3.69,3.69,0,0,1,1.2,1.48,2.31,2.31,0,0,1,2.5.42c.59.42,1.12.7,2.22-.27-.77-.49-1.54-1-2.33-1.41s-1.59-.85-2.38-1.26c1.45.52,3.28.53,5.13,1.11a7.69,7.69,0,0,1,5,4.17,10.65,10.65,0,0,1-3.37-.88,2.92,2.92,0,0,0,1.45,1.63,3,3,0,0,1,1.39,1.74,1.68,1.68,0,0,1-1.85,0,13.4,13.4,0,0,1-2-1.57c-1.44-1.28-3.19-2.8-5.1-2.79.24.91,1.67,1.39,2.69,1.88s1.55,1-.08,1.59a3.94,3.94,0,0,1,1.42-.24,2.43,2.43,0,0,1,1.06.31,3.86,3.86,0,0,1,.84.68,10.4,10.4,0,0,1,.69.94c.92,1.33,1.73,2.88,4.12,3.53l-1.54.82c.55.33,2,.86,2.55,1.85l-1.48-.22-1.5-.16a3.25,3.25,0,0,1,1.72,1.52,6.61,6.61,0,0,1,.67,2.14c.28,1.5.33,3,1.42,4a12.59,12.59,0,0,1-.71-1.62,3,3,0,0,1-.26-1,.73.73,0,0,1,.53-.82c.64-.25,1.67-.17,1.57-1.65a9.27,9.27,0,0,1,1.59,1.95,4.45,4.45,0,0,1,.58,1.61,4.67,4.67,0,0,1-.58,2.57c-.79,1.66-1.59,3.29-.17,7a4.18,4.18,0,0,1-.11-2.31c.17-.77.54-1.26,1.22-.54.12,1.64,0,3.82-.72,4.92a4.89,4.89,0,0,0,.82,2c.23.17.44-.06.66-.39.45-.67.86-1.8,1.6-.72a1.54,1.54,0,0,0,.06,2.42,7,7,0,0,1,2,2.68l-1.76.11c-.44,3.14.33,3.59,1.22,4a1.79,1.79,0,0,1,1.08.89,2.55,2.55,0,0,1,.13,1,5.29,5.29,0,0,1-.42,1.79,30.39,30.39,0,0,0-2.23-2.72l.24,1.54c.06.51.07,1,.11,1.55l-1.9-.85a13.73,13.73,0,0,1,.49,2.17,4.54,4.54,0,0,1,0,1.69,19.23,19.23,0,0,1-1.31,3.54c1.43-.41,3,1.22,2.13,4.17-1.65,1.6-1.15-1.6-2.42,2.42a5.58,5.58,0,0,1-.8-2,1.53,1.53,0,0,1,.25-.95,2.8,2.8,0,0,1,1-.93c-.49-.35-.79-1.2-1.28-1.53a7.56,7.56,0,0,0-1.67,3.17c-.38,1.16-.52,2.34-.83,3a4.49,4.49,0,0,1,1-1.3c0,.52.05,1.07,0,1.6l-.08,1.6-.09,1.63-.05.83-.1.81c-1.05.53-1.15-.4-1.25-1.28-.42,1.14-.12,2.27-.87,3.94-1-1.13-2.33-1.81-1.74-4.25l-.65,2.8c-.26.93-.56,1.85-.85,2.79a7.13,7.13,0,0,0-1.76.6c-.69.22-1.28.33-1.28-.11-1.26,1-1.74,2.9-2.6,4.85a9.81,9.81,0,0,1-3.73,5.11,2.55,2.55,0,0,1-.62,1.58,18.85,18.85,0,0,1-2.44,1.63c-.86.47-1.72.92-2.54,1.44a21.38,21.38,0,0,0-2.43,1.74,17.06,17.06,0,0,0-2.24,2.57c-1.22-.25-2.4-.51-3.56-.79-1.38,1.12-.24,1.4.71,1.86s1.7,1.09-.81,3c-1.74,1.44-2.38,1.11-2.75.47s-.52-1.61-1.34-1.6a15.27,15.27,0,0,1-2.91,3.67,5.66,5.66,0,0,1-5.19,1.36,4.28,4.28,0,0,1,1.56-.72A8.08,8.08,0,0,0,369.22,218.85Zm-27.5-10.5c.09.15.2.34.34.54a3.93,3.93,0,0,1,.39.58c.21.37.27.69-.23.94-1-.18-1.32-.49-1.28-.84A4.25,4.25,0,0,1,341.72,208.35Zm48.74-47.48c-.5.79-1.65.79-3,.59A5.23,5.23,0,0,1,390.46,160.87Zm26.24,23.28a.43.43,0,0,0,.09.1C416.12,186.48,416.38,185.69,416.7,184.15Zm.73-4.63c-.25-.46-.5-.43-.74-.23.45.32.49,1.35.37,2.54C417.52,181.49,417.83,180.89,417.43,179.52Zm-23.28-70.11c.24.29.49.57.71.88C392.56,109.71,393.33,109.6,394.15,109.41Z"/><path class="cls-1" d="M383.35,166a1.84,1.84,0,0,1-.74-.72C382.39,165.7,382.52,166,383.35,166Z"/><path class="cls-1" d="M392.11,203.26l.11-.07a.76.76,0,0,0-.12-.32Z"/><path class="cls-1" d="M443.72,225.49a3.79,3.79,0,0,1,1.76-.05.57.57,0,0,0-.56-.32A3.14,3.14,0,0,0,443.72,225.49Z"/><path class="cls-1" d="M414.22,155.05l.48,3a4.84,4.84,0,0,1,.56-2.67C414.85,155.41,414.26,156,414.22,155.05Z"/><path class="cls-1" d="M424.9,129.26c-.22-.43,0-.92-.25-1.34l-.82.12C423.9,129.89,424.57,131.17,424.9,129.26Z"/><path class="cls-1" d="M420.05,152.26c1.48-.25,1-2.1.67-4.17a1.53,1.53,0,0,1,0,.37C418.64,147.86,419.35,150.07,420.05,152.26Z"/><path class="cls-1" d="M420.66,147.61a9.5,9.5,0,0,1-.05-1.92C419.78,145.46,420.44,146.47,420.66,147.61Z"/><path class="cls-1" d="M416.39,173.66c.38-1-1.9-.6-1.3-1.16C413.2,171.42,417.43,179,416.39,173.66Z"/><polygon class="cls-1" points="424.92 150.54 423.1 151.3 424.58 152.45 424.92 150.54"/><path class="cls-1" d="M423.72,166.93l.48-3.32c-.31,0-.49-.37-.64-.89C423.52,164.77,423.18,167,423.72,166.93Z"/><path class="cls-1" d="M423.56,162.72a6.22,6.22,0,0,0-.32-2.66A13.52,13.52,0,0,0,423.56,162.72Z"/><polygon class="cls-1" points="425.51 155.06 425.13 156.05 425.02 158.39 425.51 155.06"/><path class="cls-1" d="M423.67,202.55l.56,3.61c.63.36,1-.63.74-2C424.53,203.33,424.28,202,423.67,202.55Z"/><path class="cls-1" d="M428.59,191.57c-.37,1-.78,1.05-1.38,1.61l2.27.09Z"/><path class="cls-1" d="M429.21,202.11c.63.35,1.85,5.23,1.67.65C430.25,202.4,429.7,198.78,429.21,202.11Z"/><path class="cls-1" d="M451.39,227.72c-.22.2-.47.38-.7.57l2.36,2.88C452.51,230,452,228.87,451.39,227.72Z"/><path class="cls-1" d="M460.62,187.48c-.26,1.59.28,1.74.84,1.86.28.07.55.12.69.35s.16.64-.14,1.4c.44.4.67-.22.89-.86s.34-1.28.74-.88a14.52,14.52,0,0,0-1-2.15C462.27,186.83,461.79,186.89,460.62,187.48Z"/><path class="cls-1" d="M463.64,189.35c.16.33.38.68.61,1.07A3.1,3.1,0,0,0,463.64,189.35Z"/><polygon class="cls-1" points="292.53 221.03 293.12 224.21 293.42 221.84 292.53 221.03"/><path class="cls-1" d="M297.57,225.15l-1.75,1.75c.92.21,1.84.41,2.75.58C298.15,226.93,297.34,225.85,297.57,225.15Z"/><path class="cls-1" d="M347.41,205.26l-.48-.34a.93.93,0,0,0-.72.26,2.68,2.68,0,0,0-.48.78C346.26,205.71,346.86,205.47,347.41,205.26Z"/><path class="cls-1" d="M353.7,218.48l-.34-.15c0,.74.06,1.53.14,2.27C353.55,219.9,353.62,219.19,353.7,218.48Z"/><path class="cls-1" d="M374.64,211.43a10.69,10.69,0,0,0-1.41.9,5.69,5.69,0,0,1-1.43.84,4.35,4.35,0,0,1,2.68-.51C375.14,212.65,375.39,212.54,374.64,211.43Z"/><path class="cls-1" d="M242.28,321.12H191.74V267.87a11.56,11.56,0,0,1,1-5.09,10.31,10.31,0,0,1,2.65-3.48,10.58,10.58,0,0,1,3.61-2,13.1,13.1,0,0,1,4.06-.64h28.36a12.17,12.17,0,0,1,3.87.64,10.1,10.1,0,0,1,3.48,2,10,10,0,0,1,2.51,3.48,12.17,12.17,0,0,1,1,5.09Zm-34.55-9a4.43,4.43,0,0,0,2.58-.64,3.71,3.71,0,0,0,1.28-1.48,4.09,4.09,0,0,0,.39-1.74V271.1c0-.35,0-.84-.06-1.49a5.42,5.42,0,0,0-.45-1.8,3.65,3.65,0,0,0-1.36-1.48,4.68,4.68,0,0,0-2.64-.65h-.13a7,7,0,0,0-3.16.58,3.54,3.54,0,0,0-1.55,1.48,4.8,4.8,0,0,0-.51,1.81c-.05.6-.07,1.12-.07,1.55v41Zm24.23,0v-41c0-.43,0-1-.06-1.55a4.82,4.82,0,0,0-.52-1.81,3.46,3.46,0,0,0-1.54-1.48,7,7,0,0,0-3.16-.58h-7a4.43,4.43,0,0,1,1.54,1.55,7.19,7.19,0,0,1,.78,3.87v35.58a7.23,7.23,0,0,1-.78,3.87,4.3,4.3,0,0,1-1.54,1.54Z"/><path class="cls-1" d="M257.36,341.36a7.6,7.6,0,0,1-4.25-1.1,8,8,0,0,1-2.65-2.83,12.83,12.83,0,0,1-1.35-3.68,18.87,18.87,0,0,1-.39-3.74V311.58a12.1,12.1,0,0,1,1-5.09A11.8,11.8,0,0,1,252,303a9.25,9.25,0,0,1,2.84-2,6.51,6.51,0,0,1,2.51-.65h10.31a5.13,5.13,0,0,0,2.65-.58,3.27,3.27,0,0,0,1.35-1.42,4.92,4.92,0,0,0,.45-1.8c0-.65.07-1.18.07-1.61V271.1c0-.43,0-1-.07-1.55a4.8,4.8,0,0,0-.51-1.81,3.54,3.54,0,0,0-1.55-1.48,7,7,0,0,0-3.16-.58h-2.58a7,7,0,0,0-3.16.58,3.46,3.46,0,0,0-1.54,1.48,4.65,4.65,0,0,0-.52,1.81c0,.6-.06,1.12-.06,1.55v9.54H248.72V267.87a12.17,12.17,0,0,1,1-5.09A11.62,11.62,0,0,1,252,259.3a9.29,9.29,0,0,1,2.84-2,6.47,6.47,0,0,1,2.51-.64h16.5a6.55,6.55,0,0,1,2.52.64,9.37,9.37,0,0,1,2.83,2,11.62,11.62,0,0,1,2.32,3.48,12.17,12.17,0,0,1,1,5.09v30.3a12.44,12.44,0,0,1-.45,3.48,17,17,0,0,1-1.1,2.84,11.68,11.68,0,0,1,1.49,3.09,13.28,13.28,0,0,1,.58,4v18.56a16.48,16.48,0,0,1-.46,3.74,11.2,11.2,0,0,1-1.54,3.61,9.8,9.8,0,0,1-2.71,2.77,6.86,6.86,0,0,1-3.93,1.1Zm10.06-9a6,6,0,0,0,3-.64,3.76,3.76,0,0,0,1.54-1.61,6.57,6.57,0,0,0,.58-1.87,10.62,10.62,0,0,0,.13-1.55V314.8c0-.34,0-.84-.06-1.48a5.41,5.41,0,0,0-.45-1.81,3.71,3.71,0,0,0-1.36-1.48,4.71,4.71,0,0,0-2.64-.64h-3.87a6.87,6.87,0,0,0-3.16.58,3.41,3.41,0,0,0-1.54,1.48,4.56,4.56,0,0,0-.52,1.8c0,.61-.06,1.12-.06,1.55v13.41a4,4,0,0,0,.51,1.87,4.15,4.15,0,0,0,1.61,1.61,6.64,6.64,0,0,0,3.29.64Z"/><path class="cls-1" d="M304.82,321.12a8.7,8.7,0,0,0-3.17.45,3.35,3.35,0,0,0-1.55,1.1,2.72,2.72,0,0,0-.52,1.35q-.06.71-.06,1.35c0,.43,0,.93.06,1.49a3.18,3.18,0,0,0,.52,1.54,3.61,3.61,0,0,0,1.54,1.23,7.75,7.75,0,0,0,3.16.51h34.42v9H297.86a6,6,0,0,1-2.42-.65,9.34,9.34,0,0,1-2.73-2,11.56,11.56,0,0,1-2.29-3.48,12.26,12.26,0,0,1-1-5.09v-4.77a11.21,11.21,0,0,1,1-5,11.86,11.86,0,0,1,2.45-3.48,9.72,9.72,0,0,1,3-2,7,7,0,0,1,2.57-.65h26.31a7,7,0,0,0,3.35-.64,3.78,3.78,0,0,0,1.61-1.55,4.79,4.79,0,0,0,.51-1.87c.05-.64.07-1.18.07-1.61v-7.09c0-.43,0-1-.07-1.74a5.53,5.53,0,0,0-.51-2.06,4,4,0,0,0-1.61-1.68,6.52,6.52,0,0,0-3.35-.71h-1.17v-9h1.17a6.52,6.52,0,0,0,3.35-.71,4,4,0,0,0,1.61-1.68,5.53,5.53,0,0,0,.51-2.06c.05-.73.07-1.31.07-1.74V271.1c0-.43,0-1-.07-1.55a4.8,4.8,0,0,0-.51-1.81,3.56,3.56,0,0,0-1.56-1.48,7,7,0,0,0-3.17-.58H305a7,7,0,0,0-3.17.58,3.48,3.48,0,0,0-1.55,1.48,4.82,4.82,0,0,0-.52,1.81c0,.6-.06,1.12-.06,1.55v7.22a3,3,0,0,1,1.29-1.29,3.9,3.9,0,0,1,2.08-.65h9.34a9.44,9.44,0,0,1,5,1.1,6.76,6.76,0,0,1,2.59,2.83,10.15,10.15,0,0,1,1,3.74c.08,1.34.13,2.56.13,3.68v9.67a12.29,12.29,0,0,1-1,5.09,11.81,11.81,0,0,1-2.32,3.48,9.29,9.29,0,0,1-2.84,2,6.51,6.51,0,0,1-2.51.64H298.23a6.55,6.55,0,0,1-2.52-.64,10.15,10.15,0,0,1-2.9-2,11,11,0,0,1-2.38-3.48,12.13,12.13,0,0,1-1-5.09V267.87a12.17,12.17,0,0,1,1-5.09,11.62,11.62,0,0,1,2.32-3.48,9.37,9.37,0,0,1,2.83-2,6.55,6.55,0,0,1,2.52-.64H332a6.55,6.55,0,0,1,2.52.64,9.25,9.25,0,0,1,2.83,2,11.63,11.63,0,0,1,2.33,3.48,12.33,12.33,0,0,1,1,5.09V281.8a7,7,0,0,1-1.54,3.86,7.88,7.88,0,0,1-3.61,3,4.4,4.4,0,0,1,3.61,2.26,8,8,0,0,1,1.54,4.57v14.31c0,1.21,0,2.45-.13,3.74a9.8,9.8,0,0,1-1,3.68A6.8,6.8,0,0,1,337,320a9.43,9.43,0,0,1-5,1.1Zm.3-35.71a6.64,6.64,0,0,0-3.06.58,3.81,3.81,0,0,0-1.57,1.35,4.54,4.54,0,0,0-.58,1.68,10.28,10.28,0,0,0-.14,1.41v3.74c0,.43,0,.95.07,1.55a4.77,4.77,0,0,0,.52,1.81,3.49,3.49,0,0,0,1.57,1.48,7,7,0,0,0,3.19.58h.26a7,7,0,0,0,3.2-.58,3.46,3.46,0,0,0,1.56-1.48,4.79,4.79,0,0,0,.53-1.81c0-.6.06-1.12.06-1.55V289a3,3,0,0,0-.52-1.68,4.32,4.32,0,0,0-1.63-1.35,7.39,7.39,0,0,0-3.33-.58Z"/><path class="cls-1" d="M420,288.31a11.62,11.62,0,0,0-2.32-3.48,9.2,9.2,0,0,0-2.83-2,6.59,6.59,0,0,0-2.52-.65h-9.93V269.25a9.16,9.16,0,0,1-5.8-4.13,12.13,12.13,0,0,1-1.45-8.23,5,5,0,0,0-1.38-.23H374.42a6.55,6.55,0,0,0-2.52.64,9.37,9.37,0,0,0-2.83,2,11.62,11.62,0,0,0-2.32,3.48,12.17,12.17,0,0,0-1,5.09v14.31h-10a6.59,6.59,0,0,0-2.52.65,9.24,9.24,0,0,0-2.84,2,11.81,11.81,0,0,0-2.32,3.48,12.3,12.3,0,0,0-1,5.09v16.5a12.26,12.26,0,0,0,1,5.09,12,12,0,0,0,2.32,3.49,9.37,9.37,0,0,0,2.84,2,6.41,6.41,0,0,0,2.52.65h11.86a6.85,6.85,0,0,0,3.35-1.16,7,7,0,0,0,3.48,1.16h19.34a6.41,6.41,0,0,0,2.51-.65,9.37,9.37,0,0,0,2.84-2,12,12,0,0,0,2.32-3.49,12.26,12.26,0,0,0,1-5.09V291.21h3a6.87,6.87,0,0,1,3.16.58,3.54,3.54,0,0,1,1.55,1.48,4.75,4.75,0,0,1,.51,1.81c0,.6.07,1.11.07,1.54v10.06c0,.43,0,.95-.07,1.55a4.71,4.71,0,0,1-.51,1.8,3.48,3.48,0,0,1-1.55,1.48,6.87,6.87,0,0,1-3.16.58h-1v9h8a6.41,6.41,0,0,0,2.52-.65,9.33,9.33,0,0,0,2.83-2A11.8,11.8,0,0,0,420,315a12.1,12.1,0,0,0,1-5.09V293.4A12.13,12.13,0,0,0,420,288.31Zm-54.21,20.95a6.57,6.57,0,0,1-.77,2c-.35.56-1.38.83-3.1.83a5,5,0,0,1-2.7-.58,3.16,3.16,0,0,1-1.29-1.48,5.41,5.41,0,0,1-.45-1.8c-.05-.6-.07-1.12-.07-1.55V296.62c0-.43,0-.94.07-1.54a4.75,4.75,0,0,1,.51-1.81,3.48,3.48,0,0,1,1.55-1.48,6.84,6.84,0,0,1,3.16-.58h3.09Zm26.3-2.58c0,.43,0,.95-.06,1.55a4.91,4.91,0,0,1-.52,1.8,3.43,3.43,0,0,1-1.55,1.48,6.84,6.84,0,0,1-3.16.58h-5.41a6.84,6.84,0,0,1-3.16-.58,3.43,3.43,0,0,1-1.55-1.48,4.71,4.71,0,0,1-.51-1.8c-.05-.6-.07-1.12-.07-1.55V291.21h16Zm0-24.5h-16V271.1c0-.43,0-1,.07-1.55a4.8,4.8,0,0,1,.51-1.81,3.48,3.48,0,0,1,1.55-1.48,7,7,0,0,1,3.16-.58h5a7.41,7.41,0,0,1,3.22.58,3.91,3.91,0,0,1,1.68,1.48,5.32,5.32,0,0,1,.64,1.81,10.62,10.62,0,0,1,.13,1.55Z"/><path class="cls-1" d="M406.72,247.17v8.5a3.87,3.87,0,0,0,.52,1.87,4.26,4.26,0,0,0,1.54,1.62,6.29,6.29,0,0,0,3.23.64h.12a6,6,0,0,0,3-.64,3.7,3.7,0,0,0,1.55-1.62,6.69,6.69,0,0,0,.58-1.87,10.5,10.5,0,0,0,.13-1.54v-7h10.31v10.44a18.91,18.91,0,0,1-.38,3.74,10.94,10.94,0,0,1-1.42,3.61,8,8,0,0,1-3,2.77,10.82,10.82,0,0,1-5.22,1.09H406.33a10.42,10.42,0,0,1-5.15-1.09,8.38,8.38,0,0,1-3-2.84,9.8,9.8,0,0,1-1.42-3.67,22.23,22.23,0,0,1-.32-3.74V247.17Z"/></g></g></svg>